<?xml version="1.0" encoding="UTF-8" standalone="no"?>
<!-- Created with Inkscape (http://www.inkscape.org/) -->

<svg
   xmlns:dc="http://purl.org/dc/elements/1.1/"
   xmlns:cc="http://creativecommons.org/ns#"
   xmlns:rdf="http://www.w3.org/1999/02/22-rdf-syntax-ns#"
   xmlns:svg="http://www.w3.org/2000/svg"
   xmlns="http://www.w3.org/2000/svg"
   xmlns:sodipodi="http://sodipodi.sourceforge.net/DTD/sodipodi-0.dtd"
   xmlns:inkscape="http://www.inkscape.org/namespaces/inkscape"
   width="297mm"
   height="420mm"
   viewBox="0 0 1052.3622 1488.189"
   id="svg6722"
   version="1.1"
   inkscape:version="0.91 r13725"
   sodipodi:docname="effector_camera.svg">
  <defs
     id="defs6724">
    <marker
       inkscape:stockid="Arrow1Lend"
       orient="auto"
       refY="0.0"
       refX="0.0"
       id="marker8763"
       style="overflow:visible;"
       inkscape:isstock="true">
      <path
         id="path8765"
         d="M 0.0,0.0 L 5.0,-5.0 L -12.5,0.0 L 5.0,5.0 L 0.0,0.0 z "
         style="fill-rule:evenodd;stroke:#00ff00;stroke-width:1pt;stroke-opacity:1;fill:#00ff00;fill-opacity:1"
         transform="scale(0.8) rotate(180) translate(12.5,0)" />
    </marker>
    <marker
       inkscape:stockid="Arrow1Lend"
       orient="auto"
       refY="0.0"
       refX="0.0"
       id="marker8687"
       style="overflow:visible;"
       inkscape:isstock="true">
      <path
         id="path8689"
         d="M 0.0,0.0 L 5.0,-5.0 L -12.5,0.0 L 5.0,5.0 L 0.0,0.0 z "
         style="fill-rule:evenodd;stroke:#00ff00;stroke-width:1pt;stroke-opacity:1;fill:#00ff00;fill-opacity:1"
         transform="scale(0.8) rotate(180) translate(12.5,0)" />
    </marker>
    <marker
       inkscape:stockid="Arrow2Lend"
       orient="auto"
       refY="0.0"
       refX="0.0"
       id="Arrow2Lend"
       style="overflow:visible;"
       inkscape:isstock="true">
      <path
         id="path7958"
         style="fill-rule:evenodd;stroke-width:0.625;stroke-linejoin:round;stroke:#00ff00;stroke-opacity:1;fill:#00ff00;fill-opacity:1"
         d="M 8.7185878,4.0337352 L -2.2072895,0.016013256 L 8.7185884,-4.0017078 C 6.9730900,-1.6296469 6.9831476,1.6157441 8.7185878,4.0337352 z "
         transform="scale(1.1) rotate(180) translate(1,0)" />
    </marker>
    <marker
       inkscape:stockid="Arrow1Mend"
       orient="auto"
       refY="0.0"
       refX="0.0"
       id="Arrow1Mend"
       style="overflow:visible;"
       inkscape:isstock="true">
      <path
         id="path7946"
         d="M 0.0,0.0 L 5.0,-5.0 L -12.5,0.0 L 5.0,5.0 L 0.0,0.0 z "
         style="fill-rule:evenodd;stroke:#ff0000;stroke-width:1pt;stroke-opacity:1;fill:#ff0000;fill-opacity:1"
         transform="scale(0.4) rotate(180) translate(10,0)" />
    </marker>
    <marker
       inkscape:stockid="Arrow1Lend"
       orient="auto"
       refY="0.0"
       refX="0.0"
       id="Arrow1Lend"
       style="overflow:visible;"
       inkscape:isstock="true">
      <path
         id="path7940"
         d="M 0.0,0.0 L 5.0,-5.0 L -12.5,0.0 L 5.0,5.0 L 0.0,0.0 z "
         style="fill-rule:evenodd;stroke:#00ff00;stroke-width:1pt;stroke-opacity:1;fill:#00ff00;fill-opacity:1"
         transform="scale(0.8) rotate(180) translate(12.5,0)" />
    </marker>
    <marker
       inkscape:stockid="Arrow1Mend"
       orient="auto"
       refY="0"
       refX="0"
       id="Arrow1Mend-5"
       style="overflow:visible"
       inkscape:isstock="true">
      <path
         inkscape:connector-curvature="0"
         id="path7946-3"
         d="M 0,0 5,-5 -12.5,0 5,5 0,0 Z"
         style="fill:#00ff00;fill-opacity:1;fill-rule:evenodd;stroke:#00ff00;stroke-width:1pt;stroke-opacity:1"
         transform="matrix(-0.4,0,0,-0.4,-4,0)" />
    </marker>
    <marker
       inkscape:stockid="Arrow1Mend"
       orient="auto"
       refY="0"
       refX="0"
       id="Arrow1Mend-5-6"
       style="overflow:visible"
       inkscape:isstock="true">
      <path
         inkscape:connector-curvature="0"
         id="path7946-3-2"
         d="M 0,0 5,-5 -12.5,0 5,5 0,0 Z"
         style="fill:#0000ff;fill-opacity:1;fill-rule:evenodd;stroke:#0000ff;stroke-width:1pt;stroke-opacity:1"
         transform="matrix(-0.4,0,0,-0.4,-4,0)" />
    </marker>
    <marker
       inkscape:stockid="Arrow1Mend"
       orient="auto"
       refY="0"
       refX="0"
       id="Arrow1Mend-5-6-1"
       style="overflow:visible"
       inkscape:isstock="true">
      <path
         inkscape:connector-curvature="0"
         id="path7946-3-2-2"
         d="M 0,0 5,-5 -12.5,0 5,5 0,0 Z"
         style="fill:#0000ff;fill-opacity:1;fill-rule:evenodd;stroke:#0000ff;stroke-width:1pt;stroke-opacity:1"
         transform="matrix(-0.4,0,0,-0.4,-4,0)" />
    </marker>
    <marker
       inkscape:stockid="Arrow1Mend"
       orient="auto"
       refY="0"
       refX="0"
       id="Arrow1Mend-6"
       style="overflow:visible"
       inkscape:isstock="true">
      <path
         inkscape:connector-curvature="0"
         id="path7946-0"
         d="M 0,0 5,-5 -12.5,0 5,5 0,0 Z"
         style="fill:#ff0000;fill-opacity:1;fill-rule:evenodd;stroke:#ff0000;stroke-width:1pt;stroke-opacity:1"
         transform="matrix(-0.4,0,0,-0.4,-4,0)" />
    </marker>
    <marker
       inkscape:stockid="Arrow1Mend"
       orient="auto"
       refY="0"
       refX="0"
       id="Arrow1Mend-5-2"
       style="overflow:visible"
       inkscape:isstock="true">
      <path
         inkscape:connector-curvature="0"
         id="path7946-3-6"
         d="M 0,0 5,-5 -12.5,0 5,5 0,0 Z"
         style="fill:#00ff00;fill-opacity:1;fill-rule:evenodd;stroke:#00ff00;stroke-width:1pt;stroke-opacity:1"
         transform="matrix(-0.4,0,0,-0.4,-4,0)" />
    </marker>
  </defs>
  <sodipodi:namedview
     id="base"
     pagecolor="#ffffff"
     bordercolor="#666666"
     borderopacity="1.0"
     inkscape:pageopacity="0.0"
     inkscape:pageshadow="2"
     inkscape:zoom="0.9899495"
     inkscape:cx="698.80329"
     inkscape:cy="738.95812"
     inkscape:document-units="px"
     inkscape:current-layer="g4296"
     showgrid="true"
     inkscape:window-width="1920"
     inkscape:window-height="1056"
     inkscape:window-x="1920"
     inkscape:window-y="24"
     inkscape:window-maximized="1">
    <inkscape:grid
       type="axonomgrid"
       id="grid7282"
       units="mm"
       empspacing="5" />
  </sodipodi:namedview>
  <metadata
     id="metadata6727">
    <rdf:RDF>
      <cc:Work
         rdf:about="">
        <dc:format>image/svg+xml</dc:format>
        <dc:type
           rdf:resource="http://purl.org/dc/dcmitype/StillImage" />
        <dc:title></dc:title>
      </cc:Work>
    </rdf:RDF>
  </metadata>
  <g
     inkscape:label="Layer 1"
     inkscape:groupmode="layer"
     id="layer1"
     transform="translate(0,435.82677)">
    <path
       d="m 547.5354,253.79213 -1.75,-1 m -9.5,16.375 1.75,1 m -14.25,-2.625 -1.75,-1 m -9.5,16.375 1.75,1 m -57.5,-57.375 0,1.25 m 6.125,10.625 1.125,0.625 m 73,102.375 0.375,-0.25 m 3,-5.25 0,-0.5 m -3.375,63.875 0.375,-0.25 m 3,-5.25 0,-0.5 m 46.75,-80.875 0.375,-0.125 m 3,-5.375 0,-0.375 m -24.125,13.625 0,-41.125 m -10.625,0 0,40.5 m -5.5,64.25 6.75,3.875 m 33.5,-58 -6.75,-3.875 m -36.75,61.5 5.125,1 m 36.375,-63.25 -3.375,-3.875 m -29.625,-1.5 -0.25,-0.25 m 0.25,3.625 0,-3.375 m -0.125,-0.25 -6.5,-3.75 m 6.625,7.5 0,0 0,-0.125 m 0.25,-7.125 -3.25,1.875 m -109.25,-261.249991 -2.75,-1.625 m 46.5,-23.75 -16.875,8.875 -17.75,10.5 -7.625,5.125 m 59.25,102.874991 16.875,-8.875 17.75,-10.5 7.625,-5.125 m -68.875,36.375 0,6.5 m 36.25,0 0,-23.5 m -36.25,23.5 0,1.25 -0.625,3.625 -1.625,4.75 -0.125,0.25 m 33.5,51 14.75,-8.625 m -5.625,-42.625 -0.375,-0.5 -1.625,-2.25 -1.5,-3.75 -0.5,-2.25 0,-0.875 m 9.875,18.25 -2,-3.625 -2.75,-3.75 -0.5,-0.5 m 11.25,30.125 0.125,-2.75 -0.5,-4.875 -1.375,-5.25 -2.125,-5.125 -0.75,-1.625 m 0,0 -1,-1.75 -0.25,-0.875 m -78.875,-139.499991 -6.375,4.125 -16.25,12 -14.75,12.125 -12.875,12.125 -10.875,11.749991 -8,9.875 -6.25,9.25 -4.625,8.375 -3.25,7.5 -2,6.75 -1,6 -0.125,5.125 0.5,3.875 0.75,2.875 1.25,3.125 0.75,1.625 m 106.5,1.875 13,-5 17.75,-7.875 5.25,-2.625 m -142.5,13.625 2.875,3.875 1.5,1.625 2.875,2.375 3.625,2.25 4.75,2.125 5.875,1.75 7.125,1.25 8.625,0.625 10,-0.125 4.125,-0.5 m 0.125,-6.25 0.125,0 -0.25,-0.75 -0.25,-1.625 -0.25,-2.75 0,-0.875 m 0,0 -0.125,-2 0,-4.25 0,-5.125 0.25,-5.375 0.25,-5.875 0.625,-6.125 0.75,-6.375 1.375,-6.125 1.625,-4.375 2,-3.25 2.5,-2.25 3.375,-1.75 4.125,-1.125 5.125,-0.5 6.25,0.125 7.125,1.125 7.25,2.125 5.875,2.625 1.875,1.25 m -30.25,61.375 7.5,2.5 6.125,-0.25 8.125,-3.25 7.125,-5.75 6.625,-8.25 4.75,-9.625 2.5,-10.125 0.125,-5.5 -1.125,-6 -3.125,-5.875 -5.625,-4.875 m -52.875,45.5 19.875,11.5 m 33,-57 -17.875,-10.375 m -2.125,53.75 -0.25,0 -1,-1.125 -0.625,-1.75 -0.25,-2.75 0.375,-3.25 1.125,-3.625 1.75,-3.625 2.25,-3.375 2.625,-2.875 2.625,-2 2.5,-1.25 2,-0.25 1.25,0.25 0.25,0.125 m 169.24998,-132.499991 -2.875,-4 -1.5,-1.5 -2.875,-2.3750004 -3.625,-2.25 -4.75,-2.125 -5.875,-1.875 -7.125,-1.25 -8.62498,-0.625 -10,0.25 -11.625,1.125 -13.125,2.375 -14.5,3.75 -16,5.0000004 -17,6.5 -17.75,8 -5.125,2.625 m 143.62498,12.125 0.875,-3.25 1,-5.875 0.125,-5.25 -0.5,-3.875 -0.75,-2.875 -1.25,-3.125 -0.75,-1.5 m -83.12498,116.374991 6.375,-4.125 16.25,-11.875 14.75,-12.25 4.625,-4.25 m 0.375,-3.874991 0,0 0,-0.375 -0.125,-1.125 -0.125,-2.375 -0.125,-2.75 m 0,0 0,-1.875 0,-4.375 0,-5 0.125,-5.375 0.125,-5.875 0.25,-6 0.25,-6.375 0.375,-6.5 0.5,-6.375 0.75,-6.25 0.875,-5.625 1,-3.625 1.125,-2.375 1.375,-1.5 1.5,-0.625 1.99998,-0.125 2.875,0.5 3.5,1.125 3.375,1.625 m -19.99998,75.124991 0.125,-0.125 0.625,-0.74999 0.5,-0.875001 0.625,-1.625 0.875,-2.875 m 2.125,1.25 7.37498,2.5 6.125,-0.25 8.25,-3.25 7.125,-5.625 6.625,-8.375 4.75,-9.625 2.5,-10.125 0.125,-5.5 -1.125,-5.875 -3.125,-6 -5.625,-4.875 m -37.74998,54.25 4.75,2.75 m 32.99998,-57 -28.24998,-16.25 m 8.24998,59.75 -0.25,-0.125 -1,-1 -0.625,-1.875 -0.25,-2.625 0.375,-3.375 1.125,-3.625 1.75,-3.625 2.25,-3.375 2.625,-2.75 2.625,-2.125 2.5,-1.125 1.875,-0.375 1.375,0.25 0.25,0.25 M 450.2854,269.91713 l 0,0.875 m 4,7 0.75,0.375 m -239.125,-44 0,1.125 m 4,6.875 1,0.625 m -2.5,-12.5 -1,0.625 m 7,12.25 1.125,-0.625 m 253.375,43.625 0,1.125 m 7.75,13.5 1,0.5 m -4.125,-22 -2.125,1.125 m -299.25,-65.875 0,1.125 m 7.75,13.5 1,0.625 m 45.875,-14 195.75,113 m 12.375,-96.25 -163.375,-94.25 m 4.375,-5.75 -2.875,-1.625 m -11.125,-2.375 -43.25,-24.875 m 0,-4.124991 -2.875,-1.625 m -61.5,52.249991 -0.375,1.375 -1,6.75 -0.25,5 m 38.625,-64.124991 -1,0.5 -0.375,0.25 m 30.25,126.499991 0,0.125 0.125,0.875 -0.25,0.375 -0.125,0.125 m -160.375024,-58 0,3.125 m 0,-15 0,2.625 m 154.625024,69.125 0.125,0.125 0.375,0.375 0.5,0.5 0.375,0.625 m -62.875,-68.25 0,1.125 -0.375,1 -0.25,0.375 m 53.375,59.125 8.75,5 m 5.875,12.625 0.125,0.375 0.125,0.5 -0.125,0.375 m 0,0 -4.375,6.25 m 33.875,-4.375 0,-16.5 m -24.375,30.25 0.25,0.125 0.25,0.125 0.25,0 0.125,0 0.25,0 0.25,0 0.25,-0.125 0.25,-0.125 m -22.125,-34.625 0,0 0.125,0 0.25,0.125 m -41.5,-0.875 61.375,35.375 m 1.875,0 21.875,-12.625 m 1.375,-17.25 0,11 m -34.625,9.5 0,0 m -27,-27 0.125,0.75 m 60.125,23 0.125,-0.125 0.25,-0.25 0.25,-0.375 0,-0.375 m 1.75,-1.125 0.625,0.25 0.5,0 0.25,-0.125 m -2.375,-4.125 0,0.125 m 2.375,4 11.875,-6.875 m -15,5.75 1.75,1 m -142.125,-66.5 -3.5,1 -7.25,1 -6.50002,0.125 -6.625004,-0.875 -5,-1.5 -4.625,-2.5 -3.625,-3.25 -2.125,-3 m 63.125024,46.25 2.625,0.25 7.25,1.125 7.375,1.75 6.625,2.25 5.875,2.875 1,0.5 m -32.125,-8.875 1.375,0.125 m -53.750024,-14.75 6,3.125 8.000004,3.5 8.75002,2.875 9.125,2.25 9.25,1.625 10,1.125 1.25,0.125 m -54.500024,-16 0.75,0.625 1.375,0.75 m 0.625,-70.625 -0.625,0.25 -4.375,2.875 m 46.875024,40.875 -1,-0.125 -3.375,-1.125 -1.875,-0.875 m 0,0 -1.25,-0.875 -1.75,-1.75 -0.75,-1.625 0,-0.625 m 13.75,-6 1.5,-0.125 3.875,0.5 3.5,1.125 1.875,0.875 m -24.5,4.75 0.5,-1.75 1.375,-1.625 2.375,-1.75 3.25,-1.25 3.75,-0.625 2.5,-0.125 m 10.75,2.375 1.25,0.875 1.625,1.625 0.875,1.75 -0.125,0.625 m 294.875,39.375 0,1.5 m 14,-22.25 -5,2.875 m 37.625,27.375 0.375,0.625 2.625,5.5 1.875,5.625 1.125,5.375 0.375,5.25 m -39.375,-44.25 3,-1 3.375,0 3.875,0.875 4.125,1.875 4.25,2.75 4.125,3.5 4,4.375 3.5,4.875 2.75,4.625 m 8,-8.25 -2.375,-3.875 -4.125,-5.25 -4.5,-4.625 -4.625,-3.875 -4.25,-2.75 m 28.875,49.5 -0.125,-3 -0.75,-5.875 -1.625,-6.25 -2.375,-6.125 -3,-6 -1.125,-1.875 m -1.625,30.625 0,18.75 m 10.625,1.5 0,-21.75 m 28.5,-50.875 -2.375,-3.75 -4,-5.25 -4.5,-4.75 -4.75,-3.875 -4.25,-2.625 m 29,49.5 -0.125,-3 -0.875,-6 -1.5,-6.125 -2.375,-6.25 -3,-6 -1.25,-1.875 m -39.125,71.125 -0.125,1 -0.25,0.875 -0.375,0.375 m 11.625,0.125 0,0 -0.125,-0.125 -0.125,-0.5 0,-0.25 m 14.125,-4 0,-0.125 -0.25,-0.625 -0.5,-0.5 -0.25,-0.25 m 0,0 -13.125,-7.5 m 37.625,-2.375 0,-28 m -101.25,-7.25 0,46.125 m 44.375,67 -1.5,3.625 -2.25,6.875 -1.5,6.875 -0.375,4.75 m 7.5,-26.875 -1.875,4.75 m -40.5,20.25 38.125,22 m -36.125,-78.125 37.5,21.625 m -27,-44.125 0.375,0.375 0.5,0.375 0.25,0.625 0.125,0.25 m 0,0 0.25,0.625 m -10.125,-7.25 8.625,5 m 5.125,13 0,0.375 0,0.5 0,0.5 -0.25,0.25 m -13.875,-19.75 0,0 0.25,0.125 0.125,0 m -7.75,-3.625 -0.125,3.875 -0.75,7.5 -1.625,8 -2.25,8 -2.875,7.75 -0.625,1.5 m 23.25,-6.25 -0.125,0.25 m -10.125,0 -1,0 m -6.625,56.875 2.625,1.5 m -8,-52.375 -1.5,3.625 -2.125,7 -1.5,6.875 -0.75,6.625 0.125,5.25 m 76,10.25 17.125,9.875 m 9.625,-16.875 -17,-9.875 m -9.5,-49.875 -1.125,0.75 -1.75,2 -1.25,2.375 -0.5,2.375 0,0.5 m 0,0 0,15.75 m 39.75,-44 -35.125,20.25 m -4.5,68.375 2,0.75 2.5,-0.125 2.25,-0.75 m 9.75,-16.875 0,-0.875 -1,-2.875 -1.625,-1.875 -0.625,-0.25 m -16.375,21.125 3.125,1.75 m 13.25,-23 -3.125,-1.75 m -13.75,-3.875 -2.125,3.125 -0.875,1 m 6.125,-13.25 -0.25,1.75 -1,3.625 -1.75,3.5 -0.125,0.25 m 3.5,-16 -0.125,3.875 -0.25,3 m -9.5,18.125 -1.375,3.5 -0.625,3.5 0.25,3.25 0.375,1.375 m 4.75,-16.5 -1.375,1.5 -2,3.375 m 21.625,-18.25 0,-0.375 0,-0.75 0.25,-1.125 0.5,-1.125 0.75,-1.125 0.875,-0.875 0.375,-0.25 m 0,0 25.125,-14.5 m -22.875,32.5 -5,-12.375 m -23,29.875 0.375,1.125 0.25,2.875 -0.375,3.375 -0.375,1.25 m 60.625,-83.75 -0.125,-1.375 -0.75,-1.625 -1.125,-1 m 0,0 -3.125,-1.75 m -55.5,89.5 -1,3.625 -1.25,6.75 -0.5,6.625 0.25,6.125 1.125,5.625 1.5,3.875 m 55.375,-122.125 -0.125,-0.125 -1.625,-0.375 -1.625,0.25 -1,0.5 m 9.5,21.25 0,-15.75 m -32.375,57.875 0,0 -0.125,-0.25 m -12.375,81.75 17.125,9.875 m 0,-22.5 -7.375,-4.25 m 67.125,-77 -17,-9.75 m -24.625,-10.625 0.5,-0.25 0.375,0 m 9.125,-2.625 -0.25,-3.625 -0.125,-2.875 m -49.125,125.125 2,0.875 2.5,-0.125 2.25,-0.875 m 9.75,-16.75 0,-0.875 -1,-2.875 -1.625,-1.875 -0.625,-0.25 m 36.875,-64 1.875,0.75 1.125,0 m 13.5,-17.75 -0.125,-0.875 -0.875,-2.875 -1.625,-1.75 -0.625,-0.25 m -72.125,104.625 8.75,5 m 13.25,-23 -3.125,-1.75 m 36.875,-63.875 3.125,1.875 m 5.375,-27.625 -0.875,-0.5 m -3.25,0.25 -0.625,-0.625 -1,-1.875 -0.25,-1.625 m -60.875,94.125 0.375,1.125 0.375,2.875 -0.5,3.375 -0.25,1.125 m 0,0 -0.5,1.875 -0.125,3.375 0.75,3.125 1.5,2 1,0.5 m 63.375,-109.375 -1.25,-0.75 -2.25,-0.25 m -4.5,-18.625 -0.875,-2 -1.75,-1.125 -2.125,0.125 -2.5,1.25 -2.375,2.125 -1.875,2.875 -1.25,3.25 -0.5,3 0.625,2.5 1.25,1.625 2,0.5 2.375,-0.75 2.5,-1.75 2.125,-2.5 1.625,-3.125 0.875,-3.125 -0.125,-2.875 m -3.5,-3.75 -0.75,-0.375 -2.25,0.125 -1.375,0.5 m -7,12.25 0.5,2.25 1.375,1.625 m 8.625,-10.625 0.625,2.875 m -3.375,-2.375 2.75,-0.5 m -4.875,4 2.125,-3.5 m -1.5,6.375 -0.625,-2.875 m 3.375,2.375 -2.75,0.5 m 4.875,-4 -2.125,3.5 m -1.75,-3.375 0.25,-0.375 0.25,-0.375 0.125,-0.5 0.125,-0.375 0.125,-0.375 0,-0.5 0,-0.125 m -2.375,4.25 0.125,0 0.25,-0.25 0.375,-0.25 0.25,-0.375 0.25,-0.375 0.25,-0.375 m -1,1.75 -0.5,0.125 m 0.5,-0.125 2.75,1.625 m -0.625,-5.125 2.75,1.625 m -2.875,-2.5 0.125,0.875 m -1.125,1.75 -1,1.75 m 2.125,-3.5 -1.125,1.75 m -16.125,8.75 -0.875,-2 -1.75,-1.125 -2.25,0.125 -2.5,1.125 -2.25,2.25 -2,2.875 -1.25,3.125 -0.375,3.125 0.5,2.5 1.375,1.625 2,0.5 2.375,-0.75 2.375,-1.75 2.25,-2.5 1.625,-3.125 0.875,-3.125 -0.125,-2.875 m -3.5,-3.75 -0.875,-0.375 -2.25,0.125 -1.25,0.5 m -7.125,12.25 0.5,2.25 1.375,1.625 0.125,0 m 8.625,-10.625 0.625,2.875 m -3.375,-2.375 2.75,-0.5 m -4.875,4 2.125,-3.5 m -1.625,6.375 -0.5,-2.875 m 3.25,2.375 -2.75,0.5 m 5,-4 -2.25,3.5 m -1.625,-3.375 0.25,-0.375 0.125,-0.375 0.25,-0.5 0.125,-0.375 0,-0.375 0.125,-0.5 0,-0.125 m -2.375,4.25 0,0 0.375,-0.25 0.25,-0.25 0.375,-0.375 0.25,-0.375 0.25,-0.375 m -1.125,1.75 -0.375,0.125 m 0.375,-0.125 2.75,1.625 m -0.5,-5.125 2.75,1.625 m -3,-2.5 0.25,0.875 m -1.125,1.75 -1.125,1.75 m 2.25,-3.5 -1.125,1.75 m -41.25,-47.875 -7.75,-6.625 m 0,0 -0.375,-0.5 -5,-7.5 m 0,0 12,-6.875 m 7.75,6.625 -0.5,-0.5 -7.25,-6.125 m 13.125,14.5 -5.375,-7.875 m -6.625,14.875 12,-7 m -19.75,0.375 -1.5,-1.625 -1.625,-1.375 -1.625,-1.125 -1.625,-0.875 -1.625,-0.625 -1.5,-0.375 -1.5,-0.125 -1.5,0.25 m 19.75,21.875 -0.25,-2 -0.5,-2.125 -0.625,-2.125 -0.875,-2.125 -1,-2 -1.25,-2 -1.25,-1.875 -1.5,-1.75 m 2,26.125 1.375,-0.5 1.125,-0.75 0.875,-1 0.875,-1.125 0.5,-1.5 0.375,-1.625 0.25,-1.75 -0.125,-1.875 m -17.625,4.25 1.5,1.5 1.625,1.375 1.625,1.125 1.625,0.875 1.625,0.75 1.5,0.25 1.5,0.125 1.375,-0.125 m -19.625,-21.875 0.25,2 0.375,2.125 0.75,2.125 0.875,2.125 1,2 1.125,2 1.375,1.875 1.5,1.75 m -7.25,-16 -0.125,-1.875 0.25,-1.875 0.375,-1.625 0.5,-1.375 0.875,-1.25 0.875,-1 1.125,-0.625 1.25,-0.5 m -0.125,12.5 0.625,3.25 1.5,3.375 2.125,2.875 2.625,2.25 2.5,1.25 2.375,0.125 1.875,-1.125 1.125,-2.125 0.125,-2.875 -0.625,-3.25 -1.5,-3.375 -2.125,-3 -2.625,-2.25 -2.5,-1.125 -2.375,-0.125 -1.875,1.125 -1.125,2.125 -0.125,2.875 m 19.875,9.375 -0.125,-2.5 0.625,-6.875 m 1.375,17.375 -0.75,-1.875 -1.125,-6.125 m 14.25,-8.25 -0.25,-2.375 -1.5,-5.75 m 1.375,17.5 0.25,-2.5 0.125,-6.875 m -12.375,16.25 12,-6.875 m -26.5,-25.125 -7.125,2.125 m -0.125,12.375 0.25,-2.875 1.125,-2.125 0.75,-0.625 m 10.625,18.375 -0.875,0.375 -2.375,0 -2.625,-1.25 -2.5,-2.25 -2.125,-2.875 -1.5,-3.375 -0.75,-3.375 m 14.625,19.625 0.5,-0.125 6.625,-2 m -21.625,-29.875 -0.375,0.125 -4.375,0.625 m 0,0 12.125,-6.875 m 7,-2.125 -0.5,0.125 -6.5,2 m 11.75,-2.875 -4.75,0.75 m -19.5,18.375 -0.125,-2.375 0.5,-7 m 6.875,25.375 0.375,0.5 7.25,6.125 m 0,0 4.75,-0.75 m -17.875,-13.875 -0.625,-1.875 -1.125,-6.125 m 1.75,8 5.5,8 m -1.75,-13.5 0.625,-2.375 1.375,-1.375 2,-0.375 2.375,1 2.375,2 1.875,2.625 1.25,3.125 0.375,3 -0.5,2.375 -1.375,1.375 -2,0.25 -2.375,-0.875 -2.375,-2 -1.875,-2.75 -1.25,-3 -0.5,-3 m 77.5,111.875 0.25,-1.5 0.625,-1.5 1,-1.375 1.25,-0.875 1.125,-0.5 1,0.25 0.625,0.75 0.25,1.25 -0.25,1.5 -0.625,1.5 -1,1.25 -1.125,1 -1.25,0.375 -1,-0.125 -0.625,-0.75 -0.25,-1.25 m 0,57.875 0.25,-1.5 0.625,-1.5 1,-1.375 1.25,-1 1.125,-0.375 1,0.25 0.625,0.75 0.25,1.25 -0.25,1.375 -0.625,1.625 -1,1.25 -1.125,1 -1.25,0.375 -1,-0.125 -0.625,-0.75 -0.25,-1.25 m 50.125,-86.875 0.25,-1.375 0.625,-1.625 1,-1.25 1.25,-1 1.125,-0.375 1,0.125 0.625,0.875 0.25,1.125 -0.25,1.5 -0.625,1.5 -1,1.375 -1.125,1 -1.25,0.375 -1,-0.25 -0.625,-0.75 -0.25,-1.25 m -20.875,45.25 2.5,-4.375 m 0,0 0.375,0.375 m 0,0 -2.375,4.125 m -0.5,-0.125 0.5,0.125 m -7,-3.875 6.5,3.75 m -4,-8.125 -2.5,4.375 m 2.5,-4.375 6.5,3.75 m 57.24998,-25.5 -0.25,-1.25 -0.625,-0.75 -1,-0.25 -1.25,0.375 -1.125,1 -1.125,1.375 -0.625,1.625 -0.25,1.5 0.25,1.25 0.625,0.75 1.125,0.25 1.125,-0.5 1.25,-0.875 1,-1.375 0.625,-1.625 0.25,-1.5 m -50.12498,86.75 -0.25,-1.25 -0.625,-0.75 -1,-0.25 -1.25,0.5 -1.125,1 -1,1.25 -0.75,1.625 -0.25,1.5 0.25,1.25 0.75,0.75 1,0.25 1.125,-0.375 1.25,-1 1,-1.375 0.625,-1.625 0.25,-1.5 m 50.12498,-28.875 -0.25,-1.25 -0.625,-0.75 -1,-0.25 -1.25,0.375 -1.125,1 -1.125,1.375 -0.625,1.625 -0.25,1.5 0.25,1.25 0.625,0.75 1.125,0.25 1.125,-0.5 1.25,-1 1,-1.25 0.625,-1.625 0.25,-1.5 m -50.12498,-29 -0.25,-1.25 -0.625,-0.75 -1,-0.125 -1.25,0.375 -1.125,1 -1,1.375 -0.75,1.5 -0.25,1.5 0.25,1.25 0.75,0.75 1,0.25 1.125,-0.375 1.25,-1 1,-1.375 0.625,-1.625 0.25,-1.5 m 50.62498,35.625 2.375,-4.125 m -59.74998,37.25 57.37498,-33.125 m -59.74998,31.75 2.375,1.375 m -2.375,-67.625 0,66.25 m 59.74998,-103.5 -57.37498,33.125 m 59.74998,-31.75 -2.375,-1.375 m 2.375,67.625 0,-66.25 m -62.62498,102.25 0,-66.5 m 0,66.5 0.5,-0.125 m 2,-70.75 57.62498,-33.25 m 0,0 0.125,0.5 m -66.74998,99.875 6.5,3.75 m -6.5,-70.25 0,66.5 m 2.25,-30.5 0.5,0.125 0.375,0 0.25,-0.375 0.125,-0.5 -0.125,-0.625 -0.25,-0.625 -0.375,-0.5 -0.5,-0.375 -0.5,-0.25 -0.375,0.125 -0.25,0.375 -0.125,0.5 0.125,0.5 0.25,0.625 0.375,0.625 0.5,0.375 m 57.87498,-73.625 -57.62498,33.25 m 57.62498,-33.25 6.5,3.75 m -34.24998,14.875 0.5,0.25 0.75,0.125 0.625,-0.125 0.625,-0.25 0.375,-0.25 0.125,-0.5 -0.125,-0.375 -0.375,-0.25 -0.625,-0.25 -0.625,-0.125 -0.75,0.125 -0.5,0.25 -0.375,0.25 -0.25,0.375 0.25,0.5 0.375,0.25 m -32.375,18.75 0,0.25 m 0,-0.25 2.375,-4 m 0.125,-0.125 -0.125,0.125 m -2.125,-66.5 1.75,0.625 2,0.25 2,-0.25 1.75,-0.625 1.125,-1 0.5,-1.125 -0.5,-1.25 -1.125,-1 -1.75,-0.625 -2,-0.25 -2,0.25 -1.75,0.625 -1.125,1 -0.375,1.25 0.375,1.125 1.125,1 m -1.5,38.375 0,0.125 0.625,1.25 1.5,1 m 0.875,0.625 1.375,0.5 1.75,0.25 1.625,-0.25 1.375,-0.625 1,-0.875 0.5,-1.125 -0.125,-0.25 m -7.875,2.25 0.375,0.125 m -0.375,-0.125 -0.125,-0.125 -0.125,-0.25 -0.25,-0.125 m 25.875,3.875 -3.5,-1.375 -4.125,-0.125 -4.5,1 -4.625,2.125 -4.625,3.125 -4.375,4.125 -4.125,5 -3.625,5.375 -2.875,5.875 -2.25,6 -1.375,6 -0.375,5.5 0.375,5.125 1.375,4.375 2.25,3.5 2.875,2.375 m -19.75,-47.25 2.5,-4.375 m 0,0 0.25,0.375 m 0,0 -2.25,4.125 m -0.5,-0.125 0.5,0.125 m -4.5,-8.25 -2.5,4.375 m 9,-0.625 -6.5,-3.75 m 4,8.125 -6.5,-3.75 m 44.75,-20.625 0,3.375 m 22,-16.125 -22,12.75 m 24.375,-11.375 -2.375,-1.375 m 2.375,28.75 0,-27.375 m -59.875,103.5 23.75,-13.625 m -26,12.25 2.25,1.375 m -2.25,-67.625 0,66.25 m 24.25,-83 -22,12.625 m 22,-9.125 0,-3.5 m 0,3.5 0,0.125 0,0.125 0.125,0.125 0,0.125 0.125,0.125 0.125,0 0.125,0 0.125,0 m 12.25,-7 4.875,-1 4.375,0.25 4,1.375 3.25,2.5 2.25,3.125 m -37.25,64.5 -2.125,-0.125 -4,-1.125 -3.5,-2.25 -2.75,-3.375 -1.875,-4.375 -1,-5.125 -0.125,-5.75 0.875,-6.25 1.75,-6.5 2.5,-6.625 3.25,-6.25 4,-6 4.5,-5.375 4.75,-4.625 m 12.25,-7 0.125,-0.125 0.125,-0.25 0.125,-0.125 0.125,-0.25 0,-0.125 0.125,-0.25 0,-0.125 0,-0.25 m -38.25,87.5 0,-66.5 m 0,66.5 0.5,-0.125 m 2,-70.75 22,-12.625 m 0,0 0.25,0.375 m -31.25,12.875 0,66.5 m 6.5,3.75 -6.5,-3.75 m 24.5,-83.625 -22,12.75 m 28.5,-8.875 -6.5,-3.875 m 19.875,2 -0.375,0.125 m -11.625,6.875 -4.875,4.5 -4.375,5.25 -3.875,5.875 -3.25,6.375 -2.5,6.375 -1.75,6.375 -0.75,6.25 0.125,5.75 1,5 1.875,4.25 2.625,3.375 3.375,2.25 3,1 m 38.125,-66.125 -0.375,-0.375 -3.25,-2.5 -3.875,-1.375 -4.5,-0.25 -4.75,1 m -11.75,6.625 -0.25,0.375 m 0.75,-0.75 -0.5,0.375 m 2.125,-1.75 -1.625,1.375 m 10.375,-6 -1.75,0.625 m 2.25,-0.75 -0.5,0.125 m -27,51.875 0.5,-5.75 1.25,-6.25 2.25,-6.25 2.875,-6.125 3.625,-5.875 4.125,-5.25 4.5,-4.75 4.75,-3.75 4.875,-2.75 4.75,-1.75 4.5,-0.625 4.125,0.625 3.625,1.75 2.875,2.75 2,3.5 m -34.125,59.125 -1.875,0.125 -4.125,-0.5 -3.625,-1.75 -2.875,-2.75 -2.25,-3.75 -1.25,-4.625 -0.5,-5.375 m 50.375,-40.375 -1.875,-3 -2.875,-2.75 -3.5,-1.75 -4.125,-0.5 -4.375,0.5 -4.75,1.75 -4.75,2.75 -4.625,3.75 -4.5,4.5 -4,5.25 -3.625,5.75 -2.875,6.125 -2.125,6.125 -1.25,6 -0.5,5.75 0.5,5.25 1.25,4.625 2.125,3.625 2.875,2.75 3.625,1.75 4,0.5 1.5,-0.125 m -33,-55.25 0,-0.125 m 0,0 2.25,-4.125 m 0.25,-0.125 -0.25,0.125 m 29.625,-4.5 0.5,0.625 m 11.75,-7.625 0.25,0.625 m -13.375,1.875 0.125,-0.125 0.125,0 0.125,0.125 -0.125,0.125 m 0,0 0.125,0 0.125,0 0,0.125 -0.125,0 0,0.125 -0.125,0 m 11.125,103.5 -0.375,0.25 m 0,0 -2.5,-1.5 m 60.12498,-104.125 2.5,1.5 m 0,0.375 0,-0.375 m -66.62498,100.375 6.5,3.75 m -9,-5.25 2.5,1.5 m -3.25,-96 0,-0.125 0,-0.125 -0.125,-0.125 0,-0.125 -0.125,-0.125 -0.125,0 0,-0.125 -0.125,-0.125 m 0.125,1 0.375,-0.125 m 0,0 0.375,0.375 m -0.875,-1.25 0.5,-0.25 m 0.5,0.75 0,-0.125 0,-0.125 -0.125,-0.125 0,-0.125 -0.125,0 0,-0.125 -0.125,-0.125 -0.125,0 m 0,1.125 0.5,-0.375 m 0,0 0.375,0.375 m -0.875,-1.125 1.125,-0.5 0.5,-0.375 m 8.875,-5.125 0.5,-0.375 m -10.5,7.125 1.625,-1.125 m 65.37498,67.875 -0.125,0.125 m 0,0 -57.62498,33.25 m 2.5,-112 0.25,0.5 m 0,0 -0.125,0 -0.125,0 -0.125,0.125 -0.125,0 -0.25,0.125 -0.25,0 m 0,0 0.125,-0.25 0.25,-0.125 0.125,-0.125 0.125,-0.125 0.125,-0.125 m -0.75,3.875 0.125,0.125 0.125,0 0.125,0 0.125,0 0.125,0 0.125,0 0.125,0 0.125,-0.125 m -1,0 0,-3.125 m 0.75,-0.75 22.125,-12.75 m 0,0 0.125,0.5 m -6.625,-4.25 -17.75,10.25 m 24.25,-6.5 -6.5,-3.75 m -17.75,22.75 0.875,-0.5 m 0,0 0.25,0.5 m -0.75,-1.125 0.125,0 0,0.125 0.125,0 0,0.125 0.125,0.125 0,0.125 0.125,0 0,0.125 m 0,0 0.5,-0.25 m 0,0 0.25,0.625 m -0.75,-1.375 0.125,0.125 0.125,0 0,0.125 0.125,0.125 0,0.125 0.125,0.125 0,0.125 m 0,-1.625 0,0.125 0,0.125 0,0.125 -0.125,0.125 -0.125,0.125 0,0.125 -0.125,0.125 -0.125,0 m 0.5,0.75 0.375,-0.125 m -35.125,87.5 -2.5,-1.5 m 2.5,1.5 0.25,-0.25 m 57.375,-105.375 2.5,1.5 m 0,0 0,0.375 m -69.125,98.5 2.5,1.5 m 6.5,3.75 -6.5,-3.75 m 30.5,-10.125 -24,13.875 m -92.5,-349.624991 -1.625,-0.25 -2,0.625 -1.875,1.5 -1.625,2.25 -1.125,2.5 -0.375,2.375 0.125,0.625 m 72.125,93.999991 2,-1.125 3.75,-3.25 3.25,-4.25 2.25,-5.125 1.5,-6 0.625,-6.625 -0.25,-7.25 -1.125,-7.625 -2,-7.75 -2.875,-8 -3.625,-7.749991 -4.25,-7.5 -4.75,-7.125 -5.375,-6.5 -5.75,-5.75 -6,-5 -6,-4 -6.125,-3 -6,-2 -5.75,-0.75 -5.25,0.375 -4.875,1.5 -2.875,1.5 m 56.75,134.874991 0.875,0.75 2.125,1.375 2.375,0.75 1.125,-0.25 0.375,-0.125 1.375,-1.25 1.25,-2.125 1.75,-5.625 m 10.375,11.75 -2,-1.5 -1.875,-1.375 -1.625,-1.5 -1.375,-1.5 -1.25,-1.5 -1,-1.5 -0.75,-1.375 -0.5,-1.5 m 11.625,14.375 -1.25,-2.625 m 0.25,33.5 2.5,-2 2,-3.25 1.125,-4.25 0.25,-1.5 m -6.125,-22.5 -1.25,-3.375 -3.75,-5.25 -0.375,-0.375 m 5.875,8.5 0,0 m -6,-64.375 -0.375,-7.375 -1.375,-7.75 -2.125,-7.875 -3.125,-7.874991 -3.75,-7.75 -4.375,-7.5 -5,-7 -5.5,-6.5 -5.75,-5.625 -6.125,-4.75 -6.125,-3.75 -6.125,-2.75 -5.875,-1.625 -5.625,-0.5 -5.25,0.625 -4.75,1.75 -1.625,1 m 59.5,102.999991 2.625,-1.625 3.75,-3.375 3.125,-4.5 2.125,-5.375 1.375,-6.125 0.375,-6.75 m -91.75,54.5 -3.5,0.5 -4.75,0.875 -3.125,0.625 -1.75,0.25 -0.625,-0.125 m 50.75,-59.375 -0.75,-0.5 m 10.25,27 -1.25,-6.75 -3.625,-4.25 -5.625,-1.125 -6.5,2.25 -6.5,5.25 -5.5,7.5 -3.75,8.5 -1.25,8.25 1.25,6.875 3.75,4.125 5.5,1.125 6.5,-2.25 6.5,-5.25 5.625,-7.5 3.625,-8.5 1.25,-8.25 m -4,2.375 -0.5,4.125 -1.25,4.375 -2,4.25 -2.75,3.875 -3.125,3.375 -3.375,2.375 -3.375,1.5 -3.125,0.25 -2.625,-0.75 -2,-2 -1.375,-2.875 -0.375,-3.5 0.375,-4.25 1.375,-4.25 2,-4.375 2.625,-3.875 3.125,-3.25 3.375,-2.5 3.375,-1.375 3.125,-0.375 2.75,0.875 2,1.875 1.25,2.875 0.5,3.625 m -14.5,-5.5 -0.375,3.875 -1.375,4 -2.125,3.875 -2.75,3.375 -3,2.5 -0.625,0.5 m 114.125,-62 -0.5,6.875 -1.25,6.125 -2.25,5.375 -3,4.5 -3.75,3.375 -0.5,0.375 m -59.5,-102.999991 4.125,-1.5 5.25,-0.75 5.75,0.5 5.875,1.625 6.125,2.75 6.125,3.875 6.125,4.75 5.75,5.625 5.5,6.375 5,7.125 4.375,7.375 3.75,7.875 3,7.875 2.25,7.875 1.25,7.750001 0.5,7.24999 m 51.12498,-80.874991 -0.25,-0.125 -0.25,-0.125 m -9.87498,-3.5 0.37498,0.875 m 34.125,38 -1.25,-6.75 -3.75,-4.25 -5.5,-1 -6.5,2.25 -6.5,5.25 -5.5,7.375 -3.75,8.5 -1.25,8.375 1.25,6.75 3.75,4.25 5.5,1 6.5,-2.25 6.5,-5.25 5.5,-7.375 3.75,-8.5 1.25,-8.375 m -4,2.375 -0.5,4.125 -1.25,4.375 -2.125,4.25 -2.625,4 -3.125,3.25 -3.375,2.5 -3.375,1.375 -3.125,0.375 -2.625,-0.875 -2.125,-1.875 -1.25,-2.875 -0.5,-3.625 0.5,-4.125 1.25,-4.375 2.125,-4.25 2.625,-4 3.125,-3.25 3.375,-2.5 3.375,-1.375 3.125,-0.375 2.625,0.875 2.125,1.875 1.25,2.875 0.5,3.625 m -24.875,12.625 0.75,-0.5 3,-2.5 2.75,-3.375 2.125,-3.875 1.25,-4 0.5,-3.75 M 460.6604,265.16713 l -5.875,-2.5 m 0,0 -0.375,-0.25 -3.875,-3.125 m 0,0 1.375,-0.75 m 8.75,6.625 1.375,-0.875 m -7.25,-1.625 -1.125,-0.625 -1.125,-0.375 -1.125,-0.125 -1,0 -1,0.125 -0.75,0.375 -0.875,0.625 -0.625,0.625 m 15.25,8.875 -0.625,-1.5 -0.75,-1.5 -0.875,-1.375 -1,-1.25 -1,-1.125 -1.125,-1.125 -1.125,-0.875 -1.125,-0.75 m 7.625,19.625 0.5,-1 0.375,-1 0.25,-1.125 0,-1.25 0,-1.375 -0.25,-1.5 -0.375,-1.5 -0.5,-1.375 m -7.625,10.75 1.125,0.625 1.125,0.375 1.125,0.125 1,0 1,-0.125 0.875,-0.375 0.75,-0.625 0.625,-0.625 m -15.25,-8.875 0.625,1.5 0.875,1.5 0.75,1.375 1,1.25 1,1.125 1.125,1.125 1.125,0.875 1.125,0.75 m -7.625,-9.5 -0.5,-1.375 -0.375,-1.5 -0.125,-1.5 -0.125,-1.25 0.125,-1.375 0.125,-1.125 0.375,-1 0.5,-1 m 3.25,9.875 1.375,2.5 1.75,2 1.875,1.25 1.875,0.375 1.5,-0.625 0.875,-1.625 0.125,-2.125 -0.625,-2.5 -1.25,-2.5 -1.875,-2 -1.875,-1.25 -1.875,-0.375 -1.5,0.625 -0.875,1.625 -0.125,2.125 0.625,2.5 m 12,-1 -0.625,-1.875 -1.125,-5.125 m 5,13 -0.875,-1.375 -2.375,-4.625 m 3.25,6 0.75,-0.375 m -4,4.5 0.125,-0.25 3.125,-3.875 m -5,7.25 1.75,-3.125 m -1.75,3.125 0.25,-0.125 m -10.375,-26 -3.375,4 m 3.375,9.875 -0.625,-2.5 0.125,-2.25 0.875,-1.5 0.375,-0.25 m 7.125,12.25 -1,0.25 -1.875,-0.25 -2,-1.375 -1.75,-2 -1.25,-2.375 m 4.25,9.75 0.375,0.25 5.5,2.25 m -13.5,-12 -0.625,-1.75 -1.125,-5.125 m 1.75,-3.25 -0.125,0.25 -1.625,3 m 5.125,13 -1,-1.5 -2.375,-4.625 m 3.375,6.125 4.25,3.375 m -4.5,-12.125 0.25,-1.625 0.875,-1 1.375,-0.25 1.5,0.5 1.5,1.25 1.375,1.75 0.875,2 0.25,2 -0.25,1.625 -0.875,1 -1.375,0.25 -1.5,-0.5 -1.5,-1.25 -1.375,-1.75 -0.875,-2.125 -0.25,-1.875 m -234.375,-35.5 0.25,-1.625 0.875,-1 1.375,-0.25 1.5,0.5 1.625,1.25 1.25,1.75 0.875,2 0.25,2 -0.25,1.625 -0.875,1 -1.25,0.25 -1.625,-0.625 -1.5,-1.25 -1.375,-1.75 -0.875,-2 -0.25,-1.875 m 0,-1.125 0.375,-2 1.125,-1.25 1.625,-0.375 1.875,0.625 1.875,1.625 1.625,2.125 1.125,2.5 0.375,2.5 -0.375,2 -1.125,1.25 -1.625,0.25 -1.875,-0.625 m 273.5,52.875 -0.625,-3.375 -1.5,-3.375 -2.125,-3.125 -2.625,-2.375 -2.625,-1.375 -2.5,-0.25 -2,1 -1.25,2.125 -0.25,2.875 0.625,3.375 1.5,3.5 2.125,3.125 2.625,2.375 2.625,1.375 2.5,0.125 2,-1 1.25,-2 0.25,-3 m 2,0 -0.625,-3.625 -1.5,-3.75 -2.25,-3.375 -2.75,-2.75 -2.875,-1.75 -2.75,-0.5 -2.25,0.625 -1.625,1.75 -0.875,2.75 0,1.125 m 15,15.75 1,-0.75 1.25,-2.375 0.25,-3.125 m -10,-9.125 -3.75,0.625 m 0,0 0.25,5.25 m 4,4.625 -4,-4.625 m 7.75,4 -3.75,0.625 m 3.75,-0.625 -0.25,-5.375 m -4,-4.5 4,4.5 m -0.5,0.75 0.5,0.5 0,0.125 m -2.25,-4 0,0.375 0.25,0.625 0.375,0.625 0.375,0.625 0.375,0.625 0.375,0.5 m 0.625,3.125 -3.625,2.125 m 1,-8.875 0,1.375 m 0,0 -5,2.875 m 7,-0.625 -2,-2.25 m 2.5,2.875 -0.5,-0.625 m -292.375,-68.5 -0.875,-3.5 -1.625,-3.375 -2.375,-3 -2.625,-2.125 -2.625,-1 -2.375,0.125 -1.875,1.25 -0.875,2.375 -0.125,3.125 0.875,3.375 1.75,3.5 2.25,2.875 2.625,2.125 2.75,1.125 2.375,-0.125 1.75,-1.375 1,-2.375 0,-3 m -6.625,6.5 0.625,0.25 2.75,0.875 2.5,-0.375 0.25,-0.125 m -7.875,-15.625 -3.375,1.125 m 0,0 0.625,5.5 m 4.125,4.25 -4.125,-4.25 m 7.625,3 -3.5,1.25 m 3.5,-1.25 -0.75,-5.375 m -4.125,-4.25 4.125,4.25 m -2,-2.125 0.125,0.125 0.125,0.625 0.375,0.75 0.25,0.625 0.5,0.5 0.375,0.625 0.5,0.5 m 0.375,3 -3.375,2 m 0.875,-7.125 -5,2.875 m 7.125,-0.75 -2.125,-2.125 m 2.125,2.125 0,0 m -2.375,-3.875 0.25,1.75 m 22.875,18.5 0.75,1.5 0.75,1.5 0.75,1.375 1,1.25 1,1.125 1.125,1.125 1.125,0.875 1.125,0.75 m -7.625,-19.625 -0.5,0.875 -0.375,1.125 -0.125,1.125 -0.125,1.25 0.125,1.375 0.125,1.5 0.375,1.375 0.5,1.5 m 2.125,-11.625 -0.625,0.25 -0.75,0.5 -0.75,0.75 m 7.625,19.625 1.125,0.625 1.125,0.375 1.125,0.125 1,0 1,-0.125 0.5,-0.25 m -2.25,-4.75 0.75,-0.75 0.625,-1.75 -0.125,-2.375 -0.875,-2.5 -1.5,-2.375 -1.875,-1.75 -1.875,-1 -1.75,0 -0.5,0.25 m 15,-5.875 0.875,0.625 m -20,1.875 0.75,-1 0.875,-0.875 m 11,23.625 -5,-2.125 m -7.625,-9.5 -0.125,-0.375 -1.625,-6.5 m 0,0 0.375,-0.75 1.375,-2.5 m 3.375,16.25 -3.375,-6.125 m 7.625,9.5 -0.375,-0.25 -3.875,-3.125 m 27.625,-22.375 -1.375,-0.25 -4.5,-1.25 -3.75,-2.375 -3.125,-3.375 -2.25,-4.5 -1.375,-5.25 -0.625,-6 0.5,-6.625 1.25,-6.875 2.125,-7 3,-7.125 3.625,-6.75 4.375,-6.375 4.75,-5.875 5.25,-5 5.375,-4.25 5.5,-3.125 5.375,-2.125 5.25,-0.875 4.75,0.25 4.375,1.375 3.625,2.625 2.625,3.125 m -52.625,115.375 22,-12.625 m -33.625,-47.25 0.5,6.625 1.5,5.75 3.625,7.125 3.5,7.125 2,8.75 0.5,9.75 0,14.75 m 31.375,-124.625 -4.625,1.875 -5.875,3.375 -5.75,4.375 -5.5,5.5 -5.125,6.125 -4.625,6.875 -4,7.25 -3.125,7.5 -2.375,7.5 -1.5,7.375 -0.5,6.25 m 0,0.75 -0.25,0.125 -0.25,0.125 -0.375,0.125 -0.375,0 -0.25,0 -0.375,-0.125 -0.375,-0.125 -0.25,-0.125 m 37.875,-64.125 4.625,-2.125 5.625,-1.75 5.25,-0.5 4.875,0.625 4.375,1.75 3.75,3 3,3.875 2.25,4.875 0.625,2 m -12.5,-15.375 -4.375,-1.75 -4.875,-0.625 -5.25,0.5 -5.625,1.625 -5.75,2.875 -5.75,3.75 -5.625,4.875 -5.25,5.5 -5,6.375 -4.375,6.875 -3.75,7.125 -3,7.5 -2.125,7.375 -1.375,7.25 -0.5,6.875 m 2.875,1.625 -2.875,-1.625 m 0,0 -0.125,-0.125 -0.125,-0.125 0,-0.125 -0.125,-0.125 0.125,-0.125 0,-0.125 0.125,-0.125 0.125,-0.125 m 0,0 0.5,-6.75 1.25,-7 2.25,-7.25 2.875,-7.25 3.625,-7 4.25,-6.75 4.875,-6.125 5.125,-5.5 5.5,-4.625 5.625,-3.75 0.375,-0.25 m 26.625,5.375 -1.625,-0.875 -4.25,-1.375 -4.625,-0.25 -4.875,0.875 -5.25,2 -2,1 m -32.375,55.875 0.5,5.625 1.375,5.125 2.25,4.25 3,3.375 3,2 m -9.75,-113.125 -1,-0.625 -4.5,-1.375 -4.875,-0.25 -5.375,1 -5.625,2.125 -5.625,3.25 -5.5,4.25 -5.375,5.25 -5,6 -4.375,6.5 -3.875,7 -3.125,7.25 -2.25,7.25 -1.375,7.125 -0.5,6.75 m 5.875,30.375 -2.875,-7.125 -3.5,-6.375 -2.25,-5.375 -1.25,-6.25 -0.125,-3.25 -0.125,-1.5 m 16.375,38.125 -1.75,-1.25 -1.75,-1.875 -1.375,-2 -1,-2 -0.375,-1.125 m 50.125,33.5 -43.875,-25.25 m 48.125,23.125 0,1.5 -0.5,1 -1.125,0.5 -1.5,-0.25 -1.125,-0.625 m -5.875,-32 0,0 0.5,6.875 1.625,6 0.625,1.5 3.125,5.375 4.25,10.125 m 4.375,31.625 0,-2.875 0,-11.625 -0.625,-11.125 -1.75,-7.25 -3.5,-7.125 -3.625,-7 -1.5,-6 -0.625,-6.875 m -49.75,24.375 61.375,35.5 m -61.375,-35.5 0,-9.125 0,-9.25 -0.875,-8.625 -2.125,-7.625 -3.375,-6.375 -3.375,-6.375 -1.625,-8 m 1,-3.625 0,0 -0.25,2 -0.75,1.625 m 3.875,-2 -2.875,-1.625 m 36,62.875 -0.875,3 -1.875,1.875 -2.5,0.5 -3.125,-0.75 -3.125,-2 -2.875,-3.125 -2.375,-3.875 -1.5,-4 -0.375,-2.625 0.125,-3.5 1.25,-2.625 2,-1.375 2.625,0 3.125,1.25 3.125,2.375 2.875,3.25 2.125,3.875 1.25,4 m 31.25,19.25 0.125,0.875 0,0.625 -0.125,0.625 m -4.625,-13.125 0.75,1.625 2.625,6.375 1.25,3 m -6.375,-12.875 0.625,0.375 0.625,0.75 0.5,0.625 0,0.125 m -10.375,-6.875 8.625,5 m -10.125,-5 0.25,-0.25 0.5,-0.125 0.75,0.375 m -5.625,6 0.625,-0.875 2.375,-3.5 1.125,-1.625 m -4.125,8.125 -0.25,-0.75 0,-0.75 0.25,-0.625 m 4.25,13.375 -0.625,-1.625 -2.5,-6.5 -1.125,-3.125 m 5.875,13.25 -0.625,-0.5 -0.5,-0.625 -0.5,-0.875 m 10.375,7 -8.75,-5 m 10.375,4.875 -0.375,0.25 -0.625,0.125 -0.625,-0.25 m 6,-6.375 -0.625,1 -2.5,3.5 -1.25,1.75 m 11.5,7.75 -0.25,0.125 -0.25,0.125 -0.375,0 -0.375,0 -0.25,0 -0.375,0 -0.25,-0.125 -0.375,-0.125 m -50.375,-58.5 43.875,25.375 m -48.125,-31 0.25,0.875 0.75,1.375 1,1.375 1.125,1.125 1.125,0.875 m -14.25,-34.875 0,0 1.75,11.25 2,4.375 2.375,3.875 1.75,3.5 2.125,6.25 m -11.75,-29.25 0.5,-6.875 1.5,-7.25 2.25,-7.5 3.25,-7.5 3.875,-7.125 4.5,-6.75 5.125,-6.125 5.5,-5.375 5.75,-4.375 5.75,-3.375 5.75,-2.12499 3.125,-0.75 m -36.875,94.62499 -3.75,-9.5 -2.5,-4 -2,-4.375 -1.25,-5.375 -0.5,-6.25 m 9.25,30.125 0.75,-0.625 m -10.75,-29 0.25,4.625 1.25,6 2.125,5.375 3.75,6.25 2.625,7.375 m 45.125,-96.249991 -3,-0.25 -5.25,0.5 -5.375,1.625001 -5.625,2.74999 -5.625,3.75 -5.5,4.625 -5.125,5.5 -4.875,6.125 -4.25,6.75 -3.625,7 -2.875,7.25 -2.25,7.25 -1.25,7 -0.5,6.75 m 0,0 -0.125,0.125 -0.25,0 -0.25,0.125 -0.25,0 -0.25,0 -0.125,-0.125 -0.25,0 -0.25,-0.125 m 0,0 0.5,-6.875 1.375,-7.25 2.125,-7.375 3,-7.5 3.75,-7.125 4.375,-6.875 5,-6.375 5.25,-5.625 5.625,-4.75 5.75,-3.75 5.75,-2.874991 5.625,-1.625 5.25,-0.5 4.875,0.625 4.375,1.75 3.75,2.874991 3,4 1,1.625 m -10.625,-10.124991 -4.375,-1.875 -4.875,-0.625 -5.25,0.5 -5.625,1.75 -3.5,1.5 m -33.625,65.999991 0.25,0 0.25,-0.125 0.125,0 0.25,0 0.25,0 0.25,0 0.25,0.125 0.125,0 m -5.5,-15.375 0.375,-1.625 2.25,-7.5 3.25,-7.625 4,-7.25 4.625,-6.75 5.125,-6.25 5.5,-5.375 5.75,-4.375 3.125,-1.99999 m 28.25,126.49999 -0.25,0.125 -0.125,0.25 -0.125,0.125 -0.125,0.25 -0.125,0.25 0,0.125 0,0.25 0,0.125 m 0.75,-1.5 0.625,-0.625 m 0,0 0.25,-0.125 0.125,-0.125 0.125,-0.25 0.125,-0.25 0.125,-0.125 0,-0.25 0,-0.25 0,-0.125 m -50.625,-30.125 -0.125,0.125 -0.25,0.125 -0.25,0 -0.125,0.125 -0.25,0 -0.25,0 -0.25,-0.125 -0.125,0 m 2.375,-0.875 0.25,-0.125 0.25,-0.125 0.125,0 0.25,-0.125 0.25,0 0.25,0 0.25,0.125 0.125,0 m 2.875,7.75 43.875,25.375 m -43.875,-25.375 -0.25,0.25 -0.125,0.125 -0.125,0.25 -0.125,0.125 0,0.25 -0.125,0.25 0,0.125 0,0.25 m 45.25,23.125 -43.75,-25.25 m 0,0 0.125,-0.125 0.125,-0.25 0.125,-0.125 0.125,-0.25 0.125,-0.25 0,-0.25 0.125,-0.125 -0.125,-0.25 m -110.500024,-28.25 -3.125,-6.125 -1.375,-6.5 0.625,-6.375 2.5,-6.375 4.25,-5.875 6,-5.625 1.875,-1.125 m 36.500024,46.875 -10.625,2.75 -10.875024,0.75 -8.125,-1 -7.625,-2.625 -5.625,-3.75 -4.375,-5 m 87.000024,-3.375 -6,1.5 -6.375,1.625 -7.75,2.375 -2.75,1 -5.875,2 -11,3.75 m 40.875,-13 0,0 -1.125,0.75 m -19.25,45.875 8.625,1.125 8.5,1.875 3.375,0.875 11.25,4.875 m -84.500024,-23.5 0,0 8.25,4.25 11.625024,4.5 3.125,0.875 14.5,3.25 15.25,1.875 m -72.000024,-41.75 0.125,4.125 2.125,6.25 4.125,6.125 2.5,2.75 8.375,6.375 m 35.625024,-15.125 11.25,-4 7,-2.5 6.375,-2.125 3.25,-0.875 m -76.250024,1.25 5.125,5.5 6.375,3.75 7.5,2.125 8.250004,0.75 8.50002,-0.625 8.5,-1.875 4.125,-1.375 m -53.000024,-22.375 0.5,4.875 2.375,6.375 1.75,2.875 m 86.250024,40.375 -8.125,-2 -8.75,-1.25 -9.125,-0.875 -8.875,-1.25 -13.625,-3.125 -12.750024,-4.625 -11,-5.5 -7,-4.875 -5.625,-5.75 -3.75,-6 -2,-6.375 -0.125,-6.375 0.375,-1.5 m 96.750024,45.5 -0.25,1.375 -0.75,1.625 -1.375,1 -1.875,0.25 -2.125,-0.25 m 1,-34.75 3.25,8.375 1.625,9.375 0.375,8.625 0.125,4.375 m -7.25,-33.125 0,0 0.875,0.875 1,1.5 m -11,-6.875 0.5,-0.125 1.75,0.25 2,0.875 2.125,1.25 1.875,1.5 0.875,0.75 m 70.625,64.375 -0.125,0 -0.125,0 m -4.375,-11 -0.125,0 m -41.625,-29.75 -0.75,0.5 m -21.25,-37.375 -6.25,1.375 -6.125,1.625 -7.375,2.375 -9.125,3.125 -9.125,3.25 m -2.625,4.125 -0.125,-0.25 -0.25,-0.375 0,-0.375 -0.125,-0.375 0,-0.375 0.125,-0.375 0.125,-0.25 0.25,-0.125 m 0,0 9.875,-3.5 9.75,-3.5 6,-1.875 5.125,-1.375 9.5,-2.125 m -0.5,2.625 -0.25,-0.375 0,-0.375 -0.125,-0.375 0.125,-0.375 0,-0.375 0.25,-0.25 0.25,-0.25 0.25,-0.25 m -37.625,10.75 -2.625,1.625 m -29.375024,-43.125 -6.125,4.625 -4.5,5.125 -3.125,5.5 -1.375,5.625 0.25,5.875 0.5,2 2.5,5.75 m -3,-8.25 0.125,-2 2.25,-5.75 3.625,-5.25 5.375,-5 6.5,-4.25 8.000004,-3.625 8.50002,-2.875 9.625,-1.875 9.75,-1 10.125,0 9.625,0.875 9.625,2 8.625,2.75 0.875,0.375 m 54.5,94.125 0,0 m -62,-62.125 -0.25,-0.375 -0.125,-0.25 0,-0.375 0,-0.25 0,-0.375 0.125,-0.25 0.25,-0.25 0.25,-0.25 m -0.5,0.25 0.25,-0.125 m 52.75,59.375 -0.125,0.125 -0.125,0 -0.25,0 -0.125,0 -0.125,-0.125 -0.125,0 -0.125,-0.125 -0.125,-0.125 m 48.125,19.125 0.125,0.125 0.125,0 0.25,0 0.125,0.125 0.125,-0.125 0.25,0 0.125,0 0.125,-0.125 m -1.25,0 0,0.125 0,0.125 -0.125,0.125 -0.125,0.125 -0.125,0 -0.125,0 -0.125,-0.125 m -46.375,-19.25 -4.125,6 m 0,0 -0.125,0.125 -0.125,0 -0.125,0 -0.25,0 -0.125,-0.125 -0.125,0 -0.125,-0.125 -0.125,-0.125 m -43.5,-21.375 -0.5,-12.375 -1.25,-8.25 -0.75,-2.875 m -1.875,26 1.375,0.25 1.375,-0.125 1,-0.75 0.5,-1 0.125,-0.875 m -78.250024,-65.375 -1.75,1 -5.875,5.125 -4.5,5.75 -2.625,5.875 -0.5,3.625 m 0.25,7.375 0.125,1.375 2.875,6.25 4.875,6.125 6.5,5.375 8.25,4.75 11.625024,4.875 13.25,3.75 14,2.375 11.125,1.125 11,1.875 5.25,1.25 m -8.375,-38.5 0,0 -7.625,2.5 -8.25,3 -8.5,3.25 -4.125,1.5 m 100,66.375 -0.125,0.125 -0.125,0.125 -0.125,0.125 -0.125,0.125 0,0.125 -0.125,0.25 0,0.125 0,0.125 m -8.125,-6.125 8.75,5 m -8.75,-5 -0.125,0.125 0,0.125 -0.125,0.125 -0.125,0.125 -0.125,0.125 0,0.125 0,0.25 -0.125,0.125 m -4.75,-13.625 0.625,1.625 2.5,6.5 1.25,3 m 0,0 -0.125,0.125 -0.125,0.125 -0.25,0 -0.125,0.125 -0.125,0 -0.25,0 -0.125,0.125 -0.125,0 m -3.125,-11.625 -0.125,0.125 -0.125,0 -0.125,0.125 -0.25,0 -0.125,0.125 -0.125,0 -0.125,0 -0.125,0 m 1.125,-1.875 -0.125,0.5 0,0.5 0.125,0.5 m -21.125,-22.5 -2.25,-1 -2.5,0 -1.875,1.375 -1.125,2.375 -0.125,3.375 0.375,2.375 1.375,3.75 2.25,3.5 2.625,3 3,1.875 2.75,0.75 2.5,-0.5 0.75,-0.75 m -46.875,-56.375 0.125,0.125 0.125,0.125 0.25,0.125 0.25,0 0.125,-0.125 0.25,0 0.125,-0.125 0.125,-0.25 m -1.125,0.375 -2.125,0.625 -6.375,2.125 -7.25,2.625 -11.25,4.125 m -1.125,-0.25 0.25,0.25 0.375,0.25 0.25,0 0.25,-0.25 m 91.375,60.125 0.25,0.625 0.375,0.5 0.375,0.25 m -38.375,-49.5 0.375,1 0.875,1.625 1.25,1.75 1.375,1.5 1.5,1 m -18.75,-14.5 0.5,1.875 1.25,8.25 0.375,12.375 m -0.375,-1 0.125,0 0.25,0.125 0.125,0.125 0,0.125 0.125,0.125 0,0.125 -0.125,0.25 -0.125,0.125 m 0.375,1 -0.25,0 -0.125,-0.125 -0.125,-0.125 -0.125,-0.125 0,-0.125 0,-0.125 0.125,-0.25 0.125,-0.125 m 0,0 -0.125,-4.375 -0.375,-8.625 -1.75,-9.625 m 19.625,14.125 -1.5,-1.125 -1.5,-1.5 -1.125,-1.625 -0.875,-1.75 -0.375,-1 m -15.25,-58.5 -3.875,-1.25 -9.125,-1.875 -9.5,-0.875 -9.75,0 -9.625,0.875 -9.125,1.875 -8.50002,2.75 -4.625004,2.125 m 20.750024,2.75 -1.375,-1.125 -0.375,-1.375 0.375,-1.375 1.375,-1.125 2,-0.75 2.375,-0.375 2.375,0.375 2,0.75 1.375,1.125 0.5,1.375 -0.5,1.375 -1.375,1.125 -2,0.875 -2.375,0.25 -2.375,-0.25 -2,-0.875 m -31.875024,18.5 -1.375,-1.125 -0.5,-1.375 0.5,-1.375 1.375,-1.25 2,-0.75 2.375,-0.25 2.375,0.25 2,0.75 1.25,1.25 0.5,1.375 -0.5,1.375 -1.25,1.125 -2,0.75 -2.375,0.25 -2.375,-0.25 -2,-0.75 m 73.125024,52.375 -5.125,-1.375 -10.75,-1.75 -11.125,-1.125 -14.25,-2.375 -13.00002,-3.75 -12.250004,-5.125 -8.125,-4.625 -6.75,-5.625 -4.875,-6 -0.125,-0.125 m 1.125,-26.875 2.875,-3.625 m 82.375024,62.375 0.125,-0.125 0.125,-0.25 0.125,-0.25 0,-0.125 0.125,-0.25 0,-0.25 0,-0.25 0.125,-0.25 m -87.500024,-31 2.5,4 5.375,5.375 7,5 10.875004,5.5 12.25002,4.25 13.625,3.25 8.875,1.375 9,0.75 8.75,1.25 8.625,2.125 m 0,0 -0.125,0.125 -0.125,0.125 -0.125,0.25 0,0.25 -0.125,0.25 0,0.125 -0.125,0.25 0,0.25 m -84.875024,-45.125 4,4.625 5.5,3.625 7.125,2.5 8.125004,1 10.25002,-0.875 10.625,-2.75 m -45.625024,-8.125 -0.375,0 -0.25,0.25 -0.25,0.125 -0.25,0.25 -0.25,0.25 -0.125,0.25 -0.125,0.375 0,0.25 m 4.375,-3.375 -2.75,1.625 m 48.250024,6.5 -2.75,1 -2,0.375 m 42,35.625 0,-0.125 m -86.875024,-38.625 0.125,0.375 0.25,0.25 0.375,0.25 0.375,-0.125 m 47.750024,7.875 -3.5,1.25 -8.625,2 -8.37502,0.75 -8.250004,-0.625 -7.5,-2.125 -6.375,-3.75 -0.125,0 m 61.375024,34.125 0,0 m -52.750024,-15.5 0,0.375 0.125,0.125 0.125,0.25 0.125,0.125 m 71.750024,13.125 1.75,0.25 1.625,-0.25 1.125,-0.875 0.625,-1.25 0.25,-1.25 m 0,0 0,0.75 m -0.875,1.75 -1,0.75 -1.625,0.25 -1.875,-0.25 m -1.875,-91.625 -8.625,-1.625 -9.125,-0.75 -10.75,0 -10.875,1 -10.125,2 -9.75002,3.125 -8.375004,3.875 m 67.625024,-7.625 -2.75,1.5 m -66.000024,9.75 7.5,-4.125 8.625004,-3.25 9.37502,-2.5 10,-1.375 10.25,-0.5 10.25,0.5 10,1.5 m 0,0 -0.125,0.25 -0.125,0.25 -0.125,0.25 -0.125,0.375 0,0.375 -0.125,0.375 0,0.25 0,0.375 m -5.75,40.875 0,-0.125 m 25,-40.875 -6.75,-1.75 -9.125,-2.125 m -61.625024,37.375 -0.375,-1.125 -1.125,-1 -1.75,-0.625 -2,-0.25 -2.125,0.25 -1.625,0.625 -1.25,1 -0.375,1.125 0.375,1.25 1.25,1 m 7.5,-1.5 0.875,0.75 m -9.375,0 1,-0.75 1.625,-0.625 2.125,-0.25 2,0.25 1.75,0.625 m 70.000024,-15.25 -0.25,0 -1.75,0.75 -1.125,0.875 -0.375,1.25 0.375,1.125 1.125,1 m -0.875,-0.75 0.875,-0.625 1,-0.5 m -35.5,-7 -0.5,-1.25 -1.125,-0.875 -1.75,-0.75 -2,-0.25 -2,0.25 -1.75,0.75 -1.125,0.875 -0.375,1.25 0.375,1.125 1.125,1 m 7.5,-1.375 1,0.625 m -9.375,0 0.875,-0.625 1.75,-0.75 2,-0.25 2,0.25 1.75,0.75 m 317.375,65.125 0.5,-4.25 1.5,-5.125 2.375,-4.125 3.125,-3 4,-1.875 4.5,-0.625 5,0.625 5.125,1.875 2.25,1.125 m 29.25,50.125 -0.25,0.125 -0.25,0.125 -0.375,0.125 -0.375,0 -0.375,0 -0.25,-0.125 -0.375,-0.125 -0.25,-0.125 m 0,-0.75 -0.5,-5.375 -1.375,-6.375 -2.25,-6.625 -3,-6.375 -3.875,-6.125 -4.25,-5.625 -4.75,-4.875 -5,-4 -5.125,-2.875 -1.25,-0.625 m 9.625,-3.375 -2.25,-1.125 -5.125,-1.875 -5,-0.625 -4.5,0.5 -3,1.375 m 49.125,51.875 -5,2.875 m -18.625,36.75 1.125,0 1.125,0.25 1.25,0.375 1.25,0.625 1.25,0.875 1.25,1 1.25,1.125 1.125,1.375 m -9.625,-5.625 -21.375,-12.25 m -0.25,-0.625 0.25,0.625 m -1.875,-2.625 0.25,0.125 0.25,0.25 0.25,0.25 0.125,0.25 0.25,0.25 0.25,0.25 0.125,0.375 0.125,0.25 m -10.375,-7 8.75,5 m -10.375,-4.875 0.25,-0.125 0.125,-0.125 0.125,-0.125 0.25,0 0.25,0 0.25,0 0.125,0.125 0.25,0.125 m -1.75,0.5 0.125,-0.375 m -0.125,0.375 -5.25,-3 m 0,-46.125 0,46.125 m 55.125,31.75 0,-46.125 m 0,46.125 -6.5,-3.75 m -46.75,-54.25 0,-18.875 m 6.875,30.75 -1.25,-0.875 -1.375,-1.25 -1.125,-1.375 -1.125,-1.625 -0.875,-1.625 -0.625,-1.75 -0.375,-1.75 -0.125,-1.625 m 44.5,33.625 -37.625,-21.75 m 44.5,17.75 -0.125,1.5 -0.375,1.25 -0.625,1 -0.875,0.75 -1,0.375 -1.25,0 -1.25,-0.25 -1.375,-0.625 m 6.875,-22.75 0,18.75 m -51.375,-48.5 0.5,-5.5 1.5,-4.625 2.375,-3.75 3.125,-2.75 3.875,-1.375 4.5,-0.25 4.875,1.125 5,2.375 5,3.375 4.75,4.5 4.5,5.375 3.875,5.875 3.125,6.375 2.375,6.5 1.5,6.375 0.5,6.125 m -40,-45.5 -0.625,0.375 m -10.75,15.375 0.375,0.25 0.5,0.125 0.5,0.125 0.5,0 0.5,0 0.5,-0.125 0.5,-0.125 0.375,-0.25 m 1.25,-0.625 -1.25,0.625 m 5,-0.625 -0.375,-0.25 -0.5,-0.125 -0.5,-0.125 -0.5,0 -0.5,0 -0.5,0.125 -0.5,0.125 -0.375,0.25 m 88.375,9.75 0,21.625 m 0,-21.625 5,-2.875 m -37.625,43.375 0,-21.75 m 32.625,-18.75 -0.25,0.125 -0.375,0.125 -0.25,0 -0.375,0 -0.375,0 -0.375,0 -0.25,-0.125 -0.25,-0.125 m 0,-0.875 -0.5,-5.25 -1.375,-6.5 -2.25,-6.5 -3.125,-6.5 -3.75,-6.125 -4.25,-5.625 -4.75,-4.875 -4.5,-3.625 m 2.625,-7.25 -2.125,-1.125 -0.5,-0.25 m 24.5,76.125 0,-21.625 m -44.5,40.125 -0.375,0.25 -0.375,0.375 -0.25,0.375 -0.375,0.375 -0.25,0.5 -0.125,0.5 -0.125,0.375 0,0.5 m 1.875,-3.25 1.25,-0.75 m 0,0 0.375,-0.25 0.375,-0.375 0.25,-0.375 0.375,-0.375 0.125,-0.5 0.25,-0.5 0.125,-0.375 0,-0.5 m 13.75,4.375 10.625,-6.125 m -65.125,-16 -0.375,0.25 -0.25,0.375 -0.375,0.375 -0.25,0.5 -0.25,0.375 -0.25,0.5 0,0.5 -0.125,0.375 m -3.625,43.375 37.5,21.625 m -46.375,-17.375 1.25,-2.375 1.875,-1.75 2,-0.875 2.25,0.125 1.5,0.625 m -10.75,8.875 0.25,-0.625 0.25,-0.625 0.25,-0.5 0.25,-0.625 0.25,-0.5 0.25,-0.625 0.125,-0.625 0.25,-0.5 m -1.875,4.625 -2.5,-1.5 m 8.125,-36.375 -0.125,4.25 -0.375,4.375 -0.625,4.5 -1,4.5 -1.125,4.75 -1.375,4.625 -1.625,4.625 -1.875,4.75 m 12.125,-10.625 -0.625,-0.5 -0.375,-0.75 -0.25,-0.75 0,-0.25 m 9.875,7.25 -8.625,-5 m 10.625,4.625 -0.625,0.5 -0.625,0.125 -0.75,-0.25 m 8.25,-7.5 -2,2.25 -2,2.5 -2.25,2.375 m 6.625,-9.5 0.125,0.875 -0.125,0.75 -0.375,0.75 m -3.25,-13.125 1.25,3.5 1.25,3.625 1.125,3.625 m 74,-35.25 -0.25,0.125 -0.375,0.125 -0.25,0.125 -0.375,0 -0.375,0 -0.375,-0.125 -0.25,-0.125 -0.25,-0.125 m -53.75,36.75 0,0.25 0.125,0.125 0.125,0.125 0.125,0 0.125,0.125 0.125,0 0.125,-0.125 0.125,0 m 0,0 -1.25,0.375 -0.375,0.25 m -1.5,17.125 1.375,2.5 2.5,2.5 2.875,1.375 3.25,-0.125 2.875,-1.5 2,-2.75 0.875,-3.25 m 26.5,-42.125 0,0.125 0.125,0 0.125,0.125 0.125,0.25 0.125,0.125 0,0.125 0,0.125 0.125,0.25 m -0.625,-1.125 0,-0.125 0,-0.25 0,-0.125 0.125,-0.125 0.125,-0.125 0.125,-0.125 0.125,-0.125 0.125,-0.125 m 0,0 10.625,-6.125 m -84.625,-35.125 0,18.875 m -3.75,0 0.375,0.125 0.5,0.25 0.5,0 0.5,0 0.5,0 0.5,0 0.5,-0.25 0.375,-0.125 m 40.5,139.625 -2.5,-4.5 -1.75,-5.5 -0.875,-6.125 0,-0.125 m 49.25,-107.125 0.5,-0.375 0.375,-0.375 0.5,-0.5 0.375,-0.625 0.25,-0.625 0.25,-0.625 0.125,-0.625 0.125,-0.625 m -54.125,103.375 -0.125,6.75 0.75,6.25 1.75,5.375 2.625,4.625 2.75,3.125 m -40.75,-141.375 1.25,-0.75 m 39.625,86.25 0.125,-1.625 -0.625,-2.25 -1.125,-2 -1.625,-1.25 m 0,0 -0.125,0 -0.25,-0.125 m -42,-17.25 -0.25,0.625 -0.25,0.625 -0.25,0.5 -0.25,0.625 -0.25,0.625 -0.25,0.625 -0.25,0.625 -0.25,0.625 m 7.5,-7.75 -0.875,-0.375 -1.375,0 -1.25,0.5 -1.25,1.125 -0.75,1.625 m 43.125,18.875 -37.625,-21.75 m -7.5,7.75 45.25,26 m -50.75,0.625 0.125,1.375 0.875,5.875 1.875,5.125 2.625,4.125 3.5,3.125 1,0.625 m 2.25,-112.75 0.125,1.125 0.25,1.25 0.5,1.25 0.625,1.25 0.75,1.25 0.875,1 0.875,0.875 1,0.625 m 6.75,27.75 0,0 0.125,0 0.125,0 m 3.375,10.75 0,0 0.125,0 0.125,0 m -0.25,1.375 -0.125,0.125 -0.125,0.125 0,0.125 0,0.125 0,0.25 0.125,0.125 0,0.125 m -6.25,6.375 1.625,-1.875 m -1.625,1.875 0,0 0,0.125 m -1.375,0.125 -0.125,0.125 -0.125,0.125 -0.125,0.125 0,0.125 -0.125,0.125 0,0.125 -0.125,0.125 m -8,-5.875 8.625,5 m -8.625,-5 -0.125,0.125 -0.125,0 -0.125,0.125 0,0.125 -0.125,0.125 0,0.125 -0.125,0.125 0,0.125 m -0.125,-2.375 -0.125,0 -0.25,0 -0.125,0 -0.125,0.125 -0.125,0 -0.125,0 -0.125,0 -0.125,0 m 3,6.875 -1.25,-0.5 -1.25,0 m -7,3.375 0.25,0.125 0.25,0.125 0.375,0.125 0.25,0.125 0.375,0.125 0.25,0 0.25,0.125 0.25,0 m 0.125,0 -0.125,0 m 0.125,0 0.25,0 0.25,0 0.25,0.125 0.375,0.125 0.25,0.125 0.25,0.125 0.375,0.125 0.25,0.125 m 3,-11.375 0,0.125 0.125,0.625 0.25,0.5 0.375,0.25 m -7.875,13.875 0.25,-0.625 0.25,-0.625 0.25,-0.625 0.25,-0.5 0.125,-0.625 0.25,-0.625 0.25,-0.5 0.25,-0.625 m -0.125,0 -0.25,0.625 -0.25,0.5 -0.25,0.625 -0.125,0.625 -0.25,0.5 -0.25,0.625 -0.25,0.625 -0.25,0.5 m 13.75,52 -4.625,-0.25 -4.75,-1.25 -4,-2.5 -3.375,-3.5 -2.625,-4.625 -1.75,-5.375 -0.75,-6.25 0.125,-6.25 m 5.75,-22.75 0.25,0.125 0.375,0.125 0.25,0.125 0.25,0.125 0.375,0.125 0.25,0 0.25,0.125 0.25,0 m 0.125,0.125 0.125,0 0.25,0.125 0.375,0 0.25,0.125 0.375,0.125 0.25,0.125 0.25,0.125 0.25,0.25 m -12.875,26.375 0.75,5.625 1.75,5.5 2.5,4.5 3.375,3.625 2.25,1.5 m 83.625,-71.875 -0.5,-2.5 -1.375,-1.875 -2,-0.75 -2.375,0.375 -2.625,1.5 -2.5,2.375 -2,3.125 -1.25,3.375 -0.5,3.25 0.5,2.75 1.25,1.75 2,0.875 2.5,-0.375 1.125,-0.5 m 31.5,-27.125 -0.5,-2.5 -1.25,-1.875 -2,-0.75 -2.5,0.375 -2.625,1.5 -2.375,2.375 -2,3.125 -1.375,3.375 -0.375,3.25 0.375,2.75 1.375,1.75 2,0.875 2.375,-0.375 1.125,-0.5 m -17.625,92 -4.125,0.5 -3.875,-0.5 -3.375,-1.75 -2.625,-2.875 -1.75,-3.875 -1,-4.625 0,-5.375 1,-5.75 1.5,-5.125 m 9.75,-16.875 0.375,-0.5 4.375,-4.375 4.5,-3.375 4.625,-2.375 4.5,-1.25 4.125,-0.125 3.625,1.125 3,2.375 2.25,3.375 1.375,4.25 0.375,2.5 m -10.125,-43.5 0.875,-0.5 0.875,-0.125 0.75,0.25 0.625,0.375 0.375,0.75 0.25,0.875 0,1 -0.25,1.125 m -28.625,10.625 25.125,-14.375 m -28.625,22.25 -0.125,-0.875 0,-1 0.125,-1.125 0.5,-1.125 0.5,-1.25 0.75,-1 0.875,-0.875 0.875,-0.625 m 1.5,20.375 -5,-12.5 m 9.5,12.5 -0.625,0.5 -0.75,0.375 -0.625,0.25 -0.625,0.125 -0.625,-0.125 -0.5,-0.25 -0.375,-0.375 -0.375,-0.5 m 17.625,-7.5 -1.625,0.5 -1.625,0.625 -1.625,0.75 -1.625,0.875 -1.75,1 -1.625,1.125 -1.625,1.25 -1.625,1.375 m 17.625,-12.75 -0.375,0.875 -0.375,0.875 -0.5,0.75 -0.5,0.875 -0.75,0.625 -0.625,0.5 -0.75,0.5 -0.625,0.25 m 9.5,-23.5 -5,18.25 m -43.75,71.875 0.125,0.375 0.125,0.375 0.125,0.375 0.125,0.375 0.125,0.375 0.125,0.5 0,0.375 0,0.5 m -0.75,-34.75 -1.25,4.5 -0.75,4.375 -0.625,4.25 -0.125,4.125 0.125,4 0.625,3.625 0.75,3.5 1.25,3.125 m 0.75,-35.75 0,0.5 0,0.5 -0.125,0.5 -0.125,0.625 -0.125,0.5 -0.125,0.5 -0.125,0.625 -0.125,0.5 m 11,-38.625 -0.125,1 -0.125,1 -0.25,1 -0.25,1.125 -0.375,1 -0.375,1 -0.5,1.125 -0.5,1 m 2.875,-15.375 0,0.875 0,0.875 0,0.875 0,0.875 -0.125,0.875 0,1 -0.125,0.875 -0.125,0.875 m 0.375,-22.875 0,15.75 m 3.75,-22.25 -0.75,0.5 -0.625,0.75 -0.625,0.75 -0.625,0.875 -0.5,0.875 -0.25,1 -0.25,0.875 -0.125,0.875 m 38.875,-26.75 -35.125,20.25 m 38.875,-18 -0.125,-0.875 -0.125,-0.625 -0.375,-0.625 -0.5,-0.375 -0.5,-0.125 -0.75,-0.125 -0.625,0.25 -0.75,0.25 m 3.75,18 0,-15.75 m 0.375,22.375 -0.125,-0.75 0,-0.875 -0.125,-0.875 0,-0.75 -0.125,-0.875 0,-0.875 0,-0.875 0,-0.75 m 2.875,12 -0.5,-0.5 -0.5,-0.5 -0.375,-0.625 -0.375,-0.625 -0.25,-0.75 -0.25,-0.75 -0.125,-0.75 -0.125,-0.875 m -45.5,2.125 0.125,-1.125 0.25,-1.25 0.5,-1.25 0.625,-1.25 0.75,-1.125 0.875,-1.125 0.875,-0.875 1,-0.625 m 0,0 0.25,0.125 0.25,0.25 0.25,0.25 0.125,0.25 0.25,0.375 0.125,0.25 0,0.375 0,0.25 m -6.25,6.5 0.25,0.125 0.375,0.125 0.25,0.125 0.375,0 0.375,0 0.375,-0.125 0.25,-0.125 0.25,-0.125 m 8,39.375 -0.125,0 m -9.625,16.875 0.125,0.125 m 1,-66.875 -1,0.75 -0.875,0.875 -0.875,1 -0.75,1.125 -0.625,1.25 -0.5,1.25 -0.25,1.25 -0.125,1.25 m 5,-8.75 3.125,1.875 m -5,8.625 -3.125,-1.75 m 3.125,17.5 0,-15.75 m 0,15.75 0.25,0.125 0.375,0.125 0.25,0.125 0.375,0 0.375,0 0.375,-0.125 0.25,-0.125 0.25,-0.125 m 2.5,-24.375 35.125,-20.25 m 0,0 0.25,0.125 0.25,0.25 0.125,0.25 0.25,0.25 0.125,0.375 0.125,0.25 0.125,0.375 0,0.25 m -44.5,25 0,15.75 m 0,0 3.125,1.75 m 37,-46.5 -35.125,20.25 m 38.25,-18.375 -3.125,-1.875 m -51.375,81.125 5.625,3.25 m -0.625,-20 -1.625,1.875 -1.375,2.125 -1.125,2.25 -0.75,2.375 -0.625,2.25 -0.125,2.125 0.125,2 0.5,1.75 m 10.625,-13.5 -5.625,-3.25 m 5.875,-12.75 -0.125,1.625 -0.5,1.625 -0.5,1.75 -0.75,1.625 -0.75,1.625 -1,1.625 -1.125,1.5 -1.125,1.375 m 5.875,-12.75 3.125,1.875 m -2.125,7.25 0.375,-0.875 0.375,-1 0.375,-0.875 0.375,-0.875 0.25,-1 0.125,-0.875 0.25,-0.875 0,-0.875 m -3.375,14.125 0,-0.125 0.25,-2.75 0.375,-2.5 0.625,-1.5 m 2.125,1.125 -0.75,1 -1.125,2 -1.5,2.625 0,0.125 m -5,16.75 0,0 0.25,1.5 0.25,1.25 0.125,0.875 m 7.75,-34.5 0.125,-1 0.125,-0.875 0,-0.75 0.125,-0.875 0,-0.875 0,-0.875 0,-0.875 0,-0.875 m -0.375,7 0.375,0.125 0.25,0 0.375,0.125 0.25,0 0.375,0 0.375,0 0.25,0 0.25,-0.125 m -5.25,-8.875 0,0.875 0,0.75 0,0.875 -0.125,0.875 0,0.875 0,0.875 -0.125,0.875 -0.125,0.875 m 1,9.125 0.25,0.125 0.25,0.125 0.375,0.25 0.25,0.125 0.25,0.125 0.375,0.125 0.25,0.125 0.125,0.125 m 8.5,-11.125 0,0.125 m -19.375,40.75 -3.125,-1.75 m 0,-8.75 0.375,0.875 0.125,0.875 0.125,1.125 0.125,1 -0.125,1.25 -0.125,1.125 -0.25,1.25 -0.25,1.25 m 3.75,-2 0.25,-1.25 0.75,-1.375 0.875,-0.875 m -2.5,7.25 0.125,-0.5 0.125,-0.5 0.125,-0.5 0,-0.375 0.125,-0.5 0.125,-0.5 0,-0.5 0,-0.375 m 0,0 0.375,0.125 0.25,0.125 0.375,0 0.25,0.125 0.375,0 0.375,-0.125 0.25,0 0.25,-0.125 m 36,-35.875 0.25,-0.125 0.25,-0.125 0.25,-0.125 0.125,-0.25 0.25,-0.25 0.125,-0.25 0.125,-0.375 0.125,-0.25 m -15.875,10 1.75,-1.5 1.875,-1.375 1.75,-1.25 1.875,-1.125 1.75,-1 1.875,-0.75 1.75,-0.75 1.75,-0.5 m 1.5,-1.75 5,-18.25 m -45.625,59.5 0.25,0.125 0.25,0.125 0.375,0.125 0.25,0.125 0.375,0 0.375,0.125 0.25,0 0.25,0 m -2.375,32 -1.25,-3.25 -0.875,-3.625 -0.625,-3.75 -0.125,-4.125 0.125,-4.25 0.625,-4.375 0.875,-4.625 1.25,-4.625 m 0,32.625 0.25,0.125 0.25,0 0.375,0 0.25,0 0.375,-0.125 0.375,-0.125 0.25,-0.25 0.25,-0.125 m -5.5,-1.375 3.125,1.875 m -3.125,-34.375 -1.25,4.625 -0.875,4.5 -0.625,4.5 -0.125,4.25 0.125,4 0.625,3.875 0.875,3.5 1.25,3.25 m 58.25,-50.375 -0.25,-0.875 -1.25,-4 -2.125,-3.125 -2.875,-2.25 -3.375,-1.125 -4,0.125 -4.125,1.125 -2.75,1.25 m -22.125,38.375 0.125,1.75 0.875,4.375 1.75,3.75 2.5,2.625 3.125,1.625 3.75,0.5 4,-0.5 0.75,-0.25 m 0,-4.125 -0.5,0.25 -4.25,1.75 -4.125,0.625 -3.5,-0.5 m 30.125,-52.375 0.5,0.625 2.125,3.125 1.375,4.125 0.375,3.875 m -24.25,-10 0.25,0.125 0.25,0.25 0.25,0.125 0.125,0.375 0.25,0.25 0.125,0.25 0.25,0.25 0,0.25 m -6.75,63.375 -0.125,0 m -9.625,16.875 0.125,0.125 m 59.75,-103.75 -0.125,-0.125 m -45.375,21.25 0.625,0.375 m -2.25,-2.375 0.125,0.25 0.125,0.25 0.125,0.375 0.25,0.25 0.25,0.25 0.25,0.25 0.25,0.125 0.25,0.25 m 0.625,0.375 1.625,-1.5 1.75,-1.25 1.75,-1.25 1.75,-1 1.625,-1 1.75,-0.75 1.75,-0.75 1.75,-0.5 m 0,0 0.125,0.25 0.25,0.125 0.25,0.375 0.125,0.25 0.125,0.375 0,0.25 0,0.375 0,0.375 m -2.5,-5 0,0.25 0,0.375 0,0.375 0.125,0.25 0.125,0.375 0.25,0.25 0.25,0.25 0.25,0.125 m 0,0 -1.75,0.5 -1.75,0.75 -1.75,0.75 -1.625,1 -1.75,1 -1.75,1.25 -1.75,1.25 -1.625,1.5 m 24.75,-28.75 -0.25,0 -0.25,0 -0.375,0 -0.375,0 -0.25,-0.125 -0.375,-0.125 -0.25,-0.125 -0.25,-0.125 m -8.625,21.25 0.625,0.375 m 5.375,-2.875 -0.25,0 -0.25,0 -0.375,-0.125 -0.375,0 -0.25,-0.125 -0.375,-0.125 -0.25,-0.125 -0.25,-0.125 m 0,0 5,-18.125 m -3.125,-1 0.25,0 0.25,0 0.375,0.125 0.375,0 0.25,0.125 0.375,0.125 0.25,0.125 0.375,0.125 m 0,0 -5,18.125 m -2.5,-0.5 0.25,0 0.25,0 0.375,0 0.375,0.125 0.25,0 0.375,0.125 0.25,0.125 0.375,0.125 m 5,-18.125 0.625,0.375 m -5.625,17.75 0.625,0.375 m 13.5,-23.625 0,0.125 m -54.75,106.5 -5.625,-3.25 m 65.5,-99.375 -1.25,-0.5 -1.625,-0.125 m -62.625,91.375 0.25,0.875 0.25,1 0.125,1 0.125,1 -0.125,1.125 -0.125,1.25 -0.125,1.125 -0.375,1.25 m 3.75,-3.875 0,-0.375 0,-0.375 -0.125,-0.375 -0.125,-0.375 0,-0.375 -0.125,-0.375 -0.125,-0.375 -0.125,-0.25 m 2.5,10 0,0 -0.875,-3.125 -0.75,-2.625 -0.25,-1.375 m 2.5,-0.125 -0.125,1.25 -0.25,2.625 -0.25,3.375 m 38.25,-79.5 0.375,-0.125 0.5,-0.25 0.375,-0.375 0.5,-0.5 0.375,-0.5 0.375,-0.5 0.25,-0.625 0.25,-0.625 m 15.125,-19.5 1,0.625 1.75,0.75 m -61,94 0.375,0.125 0.25,0.125 0.375,0 0.25,0 0.375,0 0.375,-0.125 0.25,-0.125 0.25,-0.125 m 55.75,-95.25 0.25,0.125 0.25,0.25 0.125,0.25 0,0.375 0,0.25 0,0.375 -0.125,0.25 -0.125,0.375 m -16.125,16.875 -0.25,0.625 -0.25,0.625 -0.375,0.5 -0.375,0.5 -0.5,0.5 -0.375,0.375 -0.5,0.25 -0.375,0.125 m 19.375,-23.375 -0.25,-0.125 -0.25,0 -0.125,0 m 1.75,47.875 0,0.125 -0.125,0.125 -0.125,0.125 m 0.25,-0.25 0,0 0.125,0 0.125,-0.125 m -0.25,-0.125 0.25,0.125 m 0,-6.875 -3,1.75 m 14.5,-1.5 -0.875,-0.5 m 0,-5.5 2.125,1.25 m -0.75,0.75 -1.375,-0.875 m 0,3.25 1.375,0.75 m -54.375,-162.125 -0.25,1.125 -2.375,1.875 -3.25,1.875 -0.5,0.375 -5.375,2.75 -0.125,0 -6,2.5 -4.375,1 m 21.5,19 0.625,-3.5 0.25,-2.125 0,-1.375 m -36,0 0,0.375 0.125,0.75 1.125,3 0.25,0.5 3,4.125 1.75,0.875 2.75,0.25 4.75,-0.125 2.875,0.25 2,0.5 3.375,1.5 1.25,0.875 0.625,0.625 m -4.75,14.125 0.25,-1.375 0.75,-2.75 0.75,-2.625 0.875,-2.625 1.125,-2.5 1,-2.25 m 22.875,7.875 -0.25,0.25 -7,7 -5,3.375 -2,1.125 -6.25,2.5 -1.875,0.375 m 27.25,5.25 0,-3.375 -0.75,-5.375 -1.625,-5.625 -2.5,-5.5 m -1.25,-2.625 0.25,-0.125 0.125,-0.125 0.125,-0.125 0,-0.125 m 1.375,2.625 0,0.125 -0.125,0 -0.125,0.125 -0.125,0.125 -0.25,0.125 m -114.375,-27 0,-3.125 0.25,-10.75 0.5,-11.625 1.75,-13.25 2.625,-7.375 3.75,-4.75 5.375,-3 9.75,-1.625 9.25,0.5 9.25,2 8.875,3.5 8.125,5 7.875,8.375 3.625,8.5 0.375,5.375 -2.5,9.25 -5.875,8.125 -1.625,1.375 m -59.25,19.625 -0.5,-0.125 -1.125,-3 -0.375,-6.375 -0.125,-6.625 m 2.875,9.375 0,0.125 2.625,-0.25 1.5,-0.375 m 58.375,-26.75 1.375,-4.75 -0.375,-4.5 -3.375,-7.375 -7.25,-7.125 -2.875,-1.625 m -30.25,61.25 0,0 -2.875,-2.375 -2.125,-3.5 -1.375,-4.25 -0.375,-5 0.375,-5.5 1.375,-5.75 2.125,-5.875 2.875,-5.75 3.625,-5.375 4,-4.875 4.375,-4 4.5,-3.125 4.625,-2.125 4.25,-1 4.125,0.125 3.5,1.375 m -2.25,24.625 -0.5,-3.25 -1.375,-2.5 -1.125,-1 m -14.75,25.625 2,0.625 3,-0.375 3.125,-1.5 3,-2.625 2.625,-3.375 2.125,-3.75 1.375,-4.125 0.5,-3.75 m 124.25,-70.249991 0,-2.875 0.125,-9.875 0.125,-10.75 0.25,-7.875 0.25,-7.75 0.5,-8.875 1,-8.125 2.125,-8.25 2.625,-3.5 3.625,-1.5 4.74998,0.375 4.875,1.5 4.875,2.375 9.125,7.875 5,9 0.5,2.125 m -38.99998,60.999991 -0.25,0.125 -0.125,-0.99999 -0.25,-2.000001 -0.125,-5.875 0,-6.125 m 30.12498,-52.125 -1,-1.5 -7.875,-6.375 m -15.62498,69.875 0,0 -2.875,-2.375 -2,-3.125 m 0.25,-21.875 1.75,-4.875 2.875,-5.75 3.5,-5.375 4.12498,-4.875 4.375,-4 4.5,-3.125 4.5,-2.125 4.375,-1 4.125,0.125 3.5,1.375 m -2.25,24.625 -0.5,-3.25 -1.375,-2.5 -1.25,-1 m -14.625,25.625 2,0.625 2.875,-0.375 3.125,-1.5 3.125,-2.5 2.625,-3.375 2.125,-3.875 1.375,-4 0.5,-3.875 M 259.4104,245.91713 l 0,-17 m 35.5,-83 -0.125,-0.25 -2.375,-4.875 -3.125,-3.875 -4,-2.625 -4.625,-1.5 -5.125,-0.25 -5.625,1 -1.125,0.375 m -43,64 0,0.75 m 37.375,45 11,-6.25 m -11,-6.375 0,12.625 m -39.875,-45 0.5,-6.875 1.375,-7.25 2.125,-7.375 3,-7.375 3.75,-7.25 4.375,-6.875 5,-6.25 5.25,-5.625 5.625,-4.75 5.75,-3.875 1.125,-0.625 m -40.625,59.625 -50.25,-29 m 28.75,58 0.25,2.5 -0.125,1.25 m 29.25,-1.5 0.75,0.25 0.875,0.25 m -14.625,-125.87499 2.375,-0.250001 5,0.250001 4.625,1.49999 3.875,2.625 2,2.125 m 2.125,1.125 -2.75,-3.5 -3.75,-2.74999 -4.25,-1.750001 -1.75,-0.375 m -20.75,0.125 -2.25,1.250001 -5.75,3.87499 -5.625,4.75 -5.25,5.625 -5,6.375 -4.375,6.75 -3.75,7.25 -3,7.375 -2.125,7.5 -1.375,7.25 -0.5,6.875 m 0,0 -0.125,-0.25 -0.25,-0.125 -0.125,-0.25 0,-0.125 m 64.375,64.25 0.875,0.5 1.25,0.125 0.75,-0.25 m 0.875,-0.625 -0.875,0.375 -1.25,-0.25 -1,-0.5 m -140.625024,-28.75 2,1.375 m 73.125024,-34.125 -0.625,0.375 m -5.625,-40 -9.5,-1.5 -10.125,-0.5 -9.875,0.375 -9.75,1.5 -9.125,2.25 -8.375024,3.25 -7.25,3.875 m 80.875024,-5.25 -7.75,-2 -9.125,-2 m 68,103.75 0,0.125 0.125,0 0,0.125 0.125,0 m -8.875,-5.25 0,0 0,0.125 0.125,0.125 m 14.875,19.75 -0.125,-0.125 -0.125,-0.125 0,-0.125 0,-0.125 0,-0.125 0.125,-0.125 0,-0.125 m -4.25,7.125 -0.125,-0.125 0,-0.125 -0.125,-0.25 0,-0.125 0.125,-0.125 0,-0.125 m 33.625,-4 0.125,-0.125 0,-0.125 0.125,0 0,-0.125 m -22.25,13 0,0.25 0,0.25 -0.125,0.125 -0.125,0.125 m -2.25,-0.75 0.125,0.25 0,0.25 0.125,0.125 0.125,0.125 m -20.25,-34.625 -0.125,0.125 m 47,18.875 0,-13.375 m -88.375,-7.25 0.125,0.5 0.25,0.375 m 85.5,22 0,0.25 -0.125,0.25 -0.125,0.125 -0.125,0.125 m -44,-22 -0.125,0.125 m 44.75,18.375 1.625,0.875 m -1.625,-2.375 0.25,0 0.125,0 0.25,0 0.125,-0.125 0.125,-0.25 0.125,-0.25 0,-0.25 m 0,-11.25 0,11.25 m -47.875,-11.125 -2,1.125 m -85.875,-47.375 -8.625,2.75 -8.625,1.5 -9.375024,-0.125 -8.75,-1.75 -1.75,-0.875 m 172.625024,55.5 0,0.125 0,0.125 0.125,0.125 0.125,0 m -35.75,9 0.5,0.25 0.25,-0.125 0.125,0 m 0.75,-1 -1.625,0.875 m -6.75,-6.125 -2,1.125 m -3.375,-13.625 -2,1.125 m 6.25,10 -1.875,1.125 m 44.5,-13.25 0.75,0.375 m -135.5,-47.125 -0.25,-0.25 -0.125,-0.125 m 138.625,60.625 0,0.25 -0.125,0.25 -0.125,0.25 -0.125,0.125 m -1.375,-0.125 0,0 -0.125,-0.125 0,-0.125 0,-0.125 m -0.875,-3.5 0,0 -0.125,0 -0.125,0 -0.125,-0.125 m 0,0 -0.125,0.125 -0.125,0.125 -0.125,0.125 m 0.375,-0.375 0.375,-0.125 m -0.75,0 0.375,0.125 m 0.375,-8.375 -0.75,-0.5 m -135,-59.75 -2.625,-2.125 -1.625,-2.5 -0.375,-2.625 1,-2.5 2.25,-2.375 3.125,-1.75 4,-1.25 4.5,-0.625 4.5,0.25 4.25,0.875 3.625,1.625 2.75,2 1.5,2.5 0.375,2.625 -0.375,1.5 m -20.125,6.625 -3,-0.75 -3.75,-1.5 m 41.375,34.875 0.75,0.25 m 2,-69 -0.875,-0.375 -4.625,-1.375 m -64.125024,3.625 -2.875,1.375 -6.375,4.25 -5.125,4.75 -3.75,5.125 -2.125,5.5 -0.375,5.125 m 86.000024,-16.125 -1,-0.5 -1.375,-1.125 -0.375,-1.375 0.375,-1.375 1.375,-1.125 2,-0.75 1,-0.25 m -91.750024,38.25 -2.875,-6.5 -0.875,-6.25 0,-0.625 m 0,-0.25 0,4.5 2,6.125 1.25,2.125 m 44.875024,-2.75 -8.875,2 -10.625024,0.125 -6.625,-1.125 -6,-2.375 -4.875,-3.5 -3.75,-4.625 m 0,0 0.375,0 0.25,0 0.25,0 0.25,0.125 0.25,0.25 0.125,0.125 m 61.875024,45.375 0,0.25 0,0.25 0,0.125 0,0.125 m 40.75,-5.25 -0.25,0.125 -0.5,0.25 m -90.125024,-80.75 -7.375,4.75 -5.75,5.25 -4.125,5.875 -2.5,6 -0.5,6.375 1.125,6.25 3.125,6.125 m 2.75,-1.625 -3.125,-8 -0.25,-5.875 1.375,-5.875 3.125,-5.625 4.75,-5.375 6.25,-4.625 m 59.625024,33.5 0,-0.125 -0.75,-2.375 -2,-2.25 -3,-1.625 -3.75,-1.25 -4.125,-0.375 -4.25,0.25 -3.875,1 -3.125,1.5 -2.25,2.125 -1.125,2.375 -0.125,1 m 24.25,-4.5 2.5,2 1.375,2.375 0.25,1.375 m -28.375,-0.25 0.5,-1.75 1.75,-2.25 2.75,-1.875 3.5,-1.25 4.125,-0.625 4.25,0 4,0.875 3.375,1.375 m 10.5,-39 9,2 8.375,2.125 0.125,0.125 m 299.75,63.75 3.125,1.875 5.25,4.25 4.875,5 4.625,5.875 3.875,6.375 3.25,6.75 2.375,6.875 1.375,6.75 0.5,6.375 m -2.5,0 0,-0.75 m -31.375,-48.875 -3.75,-1.25 -4.75,-0.625 -4.25,0.625 -3.75,1.75 -3.125,3 -2.25,3.875 -1.375,4.875 -0.5,5.625 m -0.5,-0.75 0,0.25 0.125,0.125 0.125,0.25 0.25,0.125 m 62.625,28.875 -0.5,-6.375 -1.375,-6.75 -2.375,-6.875 -3.25,-6.75 -3.875,-6.375 -4.625,-5.875 -4.875,-5 -5.25,-4.25 -3.125,-1.875 m 19.875,52 -0.375,-0.25 -0.25,-0.25 -0.125,-0.375 0,-0.25 m -39.875,-44 0,0 -3,2.5 -2.125,3.5 -1.375,4.375 -0.5,5 m 57,27.875 0.25,-0.125 0.125,-0.125 0.125,-0.25 0,-0.25 m -56.25,-27.75 0.5,-5.125 1.375,-4.375 2.125,-3.5 3,-2.5 m 8.25,-0.125 -0.5,0 -3.75,1 -3,2.125 -2.375,3.25 -1.375,4.25 -0.5,5 m 84.625,31.375 -0.125,0.875 -0.125,1 -0.375,1 -0.5,0.875 -0.625,0.875 -0.125,0.25 m 6.875,-2.625 0,-26.75 m -42.625,24.5 0,28.375 m 6.875,-6.875 -0.125,0 -0.625,-0.25 -0.5,-0.375 -0.25,-0.5 -0.25,-0.75 -0.125,-0.75 m -11.25,-4.375 0.625,0.25 0.5,0.125 m -20.25,-11.375 19.125,11 m -40.75,-45.875 0,3.125 m 46.5,74.625 0,0 -0.375,0.125 -0.375,0 -0.375,0 -0.25,-0.125 -0.375,-0.125 -0.25,-0.125 m -2.625,-29.5 0,0.375 0.125,0.25 0.25,0.25 0.375,0.25 m 9.375,1.125 0.25,-0.125 0.125,-0.25 0.125,-0.125 0,-0.25 m 5.125,-88.625 0.875,0.625 5.125,4.125 5,5.125 4.5,5.75 4,6.5 3.125,6.75 2.375,6.875 1.5,6.75 0.5,6.375 m -2.5,0 0,-0.875 m 7.5,-2 -0.5,-6.5 -1.5,-6.75 -2.375,-6.75 -3.125,-6.75 -4,-6.5 -4.5,-5.75 -5,-5.125 -5.125,-4.125 -3.25,-2 m 3.875,64.375 18,10.375 m 8,-25.25 0,0.125 -0.125,0.25 -0.125,0.125 -0.25,0.25 m -52,43 1,0.5 0.875,0.125 0.875,0 0.75,-0.25 m 0.375,-0.5 -0.75,0 -0.875,-0.125 -1,-0.5 m 13.875,1.25 0.375,0.125 0.5,0 0.375,0 0.5,-0.25 m 1.25,1.625 0,-0.125 -0.125,-0.25 -0.25,-0.375 -0.125,-0.25 -0.25,-0.25 -0.25,-0.25 -0.25,-0.125 m -2,-1.125 2,1.125 m 11.875,-4.5 0,-0.125 -0.125,-0.25 -0.125,-0.375 -0.25,-0.25 -0.25,-0.25 -0.25,-0.25 -0.25,-0.125 m -50.125,-7.25 22.625,13 m 4.75,45.375 1,-4.625 0.625,-4.5 0.375,-4.375 0.125,-4.25 m -12.5,18.875 2,1.625 1.375,2.375 0.75,2.75 0,1.375 m -46.5,-47.375 -0.125,-0.875 m 2.625,13 -0.75,-4.125 -0.625,-3.375 m 47.25,12 2.25,3.75 1.5,4.125 0.125,4 -0.875,3.5 -2.125,2.875 -3,1.5 -3.5,0.125 -3.125,-1.5 -2.625,-2.625 -2,-3.625 -1.25,-4.25 -0.25,-2.375 m 0.625,-6.75 1.125,-2.25 2,-1.75 1.5,-0.375 m 6.5,44.875 -1.125,-0.625 m 31.375,-68.25 -12.625,-7.375 m -13.625,12.375 -22.125,-12.75 m 48.375,7.75 0.125,-0.125 0.125,0 0.125,0 0.125,0 m 4.5,-0.5 0,0 -0.125,-0.375 -0.125,-0.25 -0.25,-0.375 -0.25,-0.25 -0.25,-0.125 -0.125,-0.25 m 0,2.25 0,0 m 11.75,-6.75 0,0 -0.125,-0.375 -0.125,-0.25 -0.25,-0.375 -0.125,-0.25 -0.25,-0.25 -0.25,-0.125 m -10.625,8.5 0,-0.125 m -0.625,-1.125 -15.875,-9.125 m 0,-1.375 16.5,9.375 m 10.625,-6.125 -20.5,-11.875 m -28.75,119 0.125,-6.75 1.125,-7.25 1.875,-7.5 2,-5.375 m -39.25,-110.75 0,-5.25 m 37.5,112.375 -2.75,7.625 -2,7.375 -1,7.25 0,0.125 m 4.25,-37 0,0 -0.125,-0.125 -0.125,-0.125 0,-0.25 0,-0.25 0,-0.25 0,-0.375 m -43.125,-51.375 0,0.25 0.125,0.125 0.125,0.125 0.25,0.25 m 43.875,66.25 0,0 0,0.125 0.125,0 0.25,0.125 0.125,0.125 m -0.25,-13.875 0,0.25 0,0.25 -0.125,0.375 m -45.125,-14 -2.625,7.25 -1.875,7.25 -0.875,6.875 -0.125,5.25 m 11.75,-37.25 -0.125,0.25 0,0.25 0,0.25 0.125,0.25 0.125,0.25 0.125,0.125 m 1.125,0.625 0,0 0,0.25 0,0.375 -0.125,0.25 m 11,-22.375 -0.125,0 -0.125,0 m -1.375,-2 0,0.125 0,0.125 0.125,0.125 m -8.875,-5.375 0.125,0.125 0,0.125 0,0.125 0.125,0 m 7.375,26.875 -0.125,0 0,0.125 0,0.125 0,0.125 0,0.125 0.125,0.125 m -9.25,-27.75 0.125,0.125 0.125,0.125 0.25,0.125 0.125,0 m -14.75,32.875 0,0 0.125,0.125 0.125,0.125 0.125,0.125 0.25,0.125 m 13.375,-33.375 0.125,0.125 0.125,0.125 m 7.75,26.625 0.375,0.125 0.125,0 0.5,-0.125 0.125,0 m 0,-0.625 -1.125,0.625 m -7.625,-5.625 -1,0.625 m -1.25,-4.25 0.5,2.75 m 0.625,-0.5 -0.625,0.5 m -0.625,6.5 -0.5,0 -1.75,0.75 -1.375,1.375 -1.125,2 m 0.125,0 1,-2 1.5,-1.5 1.75,-0.625 0.375,0 m 5.375,59.625 -1,-0.125 -4.5,-1.25 -4,-2.375 -3.25,-3.375 -2.5,-4.375 -1.625,-5.25 -0.75,-6 0.125,-6.625 1,-7 1.875,-7.125 2.75,-7.25 m -0.125,-0.125 -2.75,7.375 -1.875,7.25 -1,7 -0.125,6.5 0.75,6 1.625,5.375 2.5,4.375 3.25,3.5 4,2.375 4.5,1.25 1.375,0.125 m -20.25,-29.125 0,-0.625 1,-7.125 2,-7.5 2.75,-7.5 m -2.5,-1.5 -2.875,7.5 -1.875,7.5 -1.125,7.25 -0.125,6.75 0.125,0.625 m 74.375,-15.625 3,-1 2.75,0.25 2.125,1.375 1.375,2.375 0.125,0.25 m -13.375,23 -1.125,0.25 -2.625,-0.375 m 53.875,-28.75 -1.625,0.125 -2.5,-0.5 -1.875,-1.625 -1.25,-2.625 -0.25,-3.25 0.5,-3.875 1.5,-4 2.125,-3.75 2.625,-3.25 3,-2.5 m -56.125,93 2.75,-3.375 3,-2.75 3.125,-1.625 3,-0.5 2.5,0.75 1.875,1.75 0.875,1.75 m 16.625,-41.875 -1.75,0.75 -1.75,1.25 m -4.25,7.375 -0.375,2.25 0.375,1.875 m 0,2.125 -0.5,-0.5 -1,-2.125 0,-3 1,-3.25 1.625,-3.125 2.375,-2.625 2.5,-1.75 2.375,-0.5 1.25,0.125 m -17.125,-9.875 -1.625,-0.375 -2.5,0.5 -2.5,1.75 -2.25,2.625 -1.75,3.125 -0.875,3.25 0,3 0.875,2.125 1,0.875 m -3.875,-58 -0.25,-0.125 -0.125,-0.25 -0.125,-0.125 0,-0.25 m 5.5,-8 -0.25,0 -0.25,-0.125 -0.125,0 -0.25,0.125 m -4.625,23.75 0,0.25 0.125,0.125 0.125,0.25 0.25,0.125 m 40.125,-44.75 -0.25,0 -0.25,-0.125 -0.25,0 -0.125,0.125 m -23.75,71.25 -0.25,-0.875 -1.25,-2 -2,-1 -2.5,0.25 -2.625,1.25 -2.625,2.25 -2.25,3 -1.625,3.375 -0.875,3.5 0,3 0.875,2.5 1.625,1.5 2.25,0.375 1.5,-0.25 m -6.125,0.5 -1,-0.75 -1.25,-2.25 -0.5,-3 0.5,-3.625 1.25,-3.875 2.125,-3.625 2.625,-3 2.875,-2.25 2.875,-1.125 2.625,0 1.125,0.5 m -18.5,18.75 1.5,2 0.625,0.5 m 13.25,-23 -1.75,-0.625 -2.75,0.375 -3,1.375 -2.875,2.625 m -0.25,-16.75 0,0.125 0.125,0.125 0,0.25 0.25,0.125 0.125,0.125 m -6.625,12.5 0,0 0.125,0 0.125,0 0.25,0.125 0.25,0.125 m -5.5,16.25 0.125,0.125 0.125,0.125 0.25,0.25 m 22.5,-30.25 0.125,0 0,0.25 0,0.25 -0.125,0.25 -0.125,0.375 -0.25,0.125 m 3.5,-7.875 0,0.25 0,0.25 -0.125,0.25 -0.25,0.125 m 25.5,-15.25 0,0.25 -0.125,0.25 -0.125,0.125 -0.125,0.125 m -22.875,32.5 0.125,0.125 0,0.25 0,0.25 -0.125,0.375 -0.125,0.25 -0.25,0.25 m -0.625,-4 0.125,0.125 0.125,0 0.25,0.125 0.25,-0.125 0.125,0 0.25,-0.125 0.25,-0.25 m 20.875,-28.25 0.125,-0.375 0,-0.25 m -49.5,57.75 0,0 0.125,0.125 0,0.125 0.25,0.125 0.25,0.25 m 54.5,-88 1,-0.5 0.875,-0.125 0.875,0 0.75,0.25 m 2,4 0,0.125 -0.125,0.25 -0.125,0.125 -0.25,0.25 m -4.625,-6.5 -0.75,-0.375 -0.875,0 -0.875,0.25 -1,0.375 m -51.875,121.875 0,0.125 0.25,0.25 0.25,0.125 m 60,-101.125 0,0.125 -0.125,0.25 -0.125,0.125 -0.25,0.25 m -27.25,126.375 -0.375,2.125 0.375,2 m 0,2.125 -0.5,-0.5 -1,-2.125 0,-3 1,-3.25 0.5,-1 m 57.875,-92.5 -1.875,0.625 -1.75,1.375 m -3.125,1.75 0.125,-0.125 2.25,-2.625 2.625,-1.75 2.375,-0.625 1.25,0.25 m -64.375,12.25 0.25,0.125 0.375,0 0.5,0 0.375,-0.125 0.5,-0.375 0.5,-0.25 m -5.375,65.25 -1.625,-0.375 -2.5,0.5 -2.5,1.75 -2.25,2.625 -1.75,3.125 -0.875,3.25 0,3 0.875,2.125 1,0.875 m 59.75,-103.75 -0.25,-0.125 m -10.625,8.75 -0.625,2.375 0,2.875 0.625,1.75 m -34.5,5.625 -0.5,0.375 -0.5,0.25 -0.375,0.125 -0.5,0 -0.125,0 m 24.375,-30 0.125,-0.75 0,-0.75 -0.125,-0.625 -0.375,-0.375 -0.25,-0.25 m -0.25,0 0.25,0.375 0.125,0.5 0,0.75 -0.125,0.75 m 9.125,-5 0,0 0,0.25 -0.125,0.25 -0.125,0.25 -0.25,0.125 m -33.125,100.5 -0.25,-0.875 -1.25,-2 -2,-1 -2.5,0.25 -2.625,1.25 -2.625,2.25 -2.25,3 -1.625,3.375 -0.875,3.5 0,3 0.875,2.5 1.625,1.5 2.25,0.375 1.5,-0.25 m -6.125,0.5 -1,-0.75 -1.25,-2.25 -0.5,-3.125 0.5,-3.5 1.25,-3.875 2.125,-3.625 2.625,-3 2.875,-2.25 2.875,-1.125 2.625,0 1.125,0.5 m 52.75,-81.25 -0.25,-0.75 -1.25,-2 -0.75,-0.625 m -10.625,5.5 -0.625,0.875 -1.625,3.375 -0.875,3.375 0,3.125 0.875,2.375 1.625,1.5 0.625,0.25 m -3,0.5 -1,-0.75 -1.25,-2.25 -0.5,-3.125 0.5,-3.625 1.25,-3.75 2.125,-3.625 1.875,-2.25 m -43,81.375 -2.5,-0.625 -2.875,0.625 -3.125,2 -2.875,2.875 -2.375,3.625 -1.625,4 m -5.625,-3.25 -0.625,3.5 0.25,3 0.875,2.375 1.625,1.625 m 61.875,-105.625 -1.5,1.125 -2.75,2.875 -2.375,3.5 -1.5,3.75 -0.75,3.75 0.25,3.375 1.125,2.5 1.375,1.125 m 4.75,-26.875 2.75,1.625 m -1.25,1.5 -0.875,-0.125 -0.875,0 m 0.25,-3 -1.125,0 -0.25,0 m -61.75,99.375 0,0.125 0,0.125 0.125,0.125 0.125,0.125 0.25,0.125"
       style="fill:none;stroke:#000000;stroke-width:0.88625002;stroke-linecap:round;stroke-linejoin:round;stroke-miterlimit:10;stroke-dasharray:none;stroke-opacity:1"
       id="path6041"
       inkscape:connector-curvature="0" />
    <g
       id="g4296">
      <path
         inkscape:connector-curvature="0"
         id="path8279"
         d="m 594.66795,374.62719 168.28858,98.27469"
         style="fill:#ff0000;fill-opacity:1;fill-rule:evenodd;stroke:#ff0000;stroke-width:3;stroke-linecap:butt;stroke-linejoin:miter;stroke-miterlimit:4;stroke-dasharray:none;stroke-opacity:1;marker-end:url(#Arrow1Mend)" />
      <path
         inkscape:connector-curvature="0"
         id="path8279-5"
         d="M 593.38984,375.6854 424.57169,473.04767"
         style="fill:#00ff00;fill-opacity:1;fill-rule:evenodd;stroke:#00ff00;stroke-width:3;stroke-linecap:butt;stroke-linejoin:miter;stroke-miterlimit:4;stroke-dasharray:none;stroke-opacity:1;marker-end:url(#Arrow1Mend-5)" />
      <path
         inkscape:connector-curvature="0"
         id="path8279-5-9"
         d="M 594.6711,375.97928 592.83789,181.10592"
         style="fill:#0000ff;fill-opacity:1;fill-rule:evenodd;stroke:#0000ff;stroke-width:3;stroke-linecap:butt;stroke-linejoin:miter;stroke-miterlimit:4;stroke-dasharray:none;stroke-opacity:1;marker-end:url(#Arrow1Mend-5-6)" />
    </g>
    <path
       style="fill:#0000ff;fill-opacity:1;fill-rule:evenodd;stroke:#0000ff;stroke-width:3;stroke-linecap:butt;stroke-linejoin:miter;stroke-miterlimit:4;stroke-dasharray:none;stroke-opacity:1;marker-end:url(#Arrow1Mend-5-6-1)"
       d="m 610.82796,70.301477 168.7727,97.441053"
       id="path8279-5-9-7"
       inkscape:connector-curvature="0" />
    <path
       style="fill:#ff0000;fill-opacity:1;fill-rule:evenodd;stroke:#ff0000;stroke-width:3;stroke-linecap:butt;stroke-linejoin:miter;stroke-miterlimit:4;stroke-dasharray:none;stroke-opacity:1;marker-end:url(#Arrow1Mend-6)"
       d="m 610.912,70.434508 0,-194.881898"
       id="path8279-6"
       inkscape:connector-curvature="0" />
    <path
       style="fill:#00ff00;fill-opacity:1;fill-rule:evenodd;stroke:#00ff00;stroke-width:3;stroke-linecap:butt;stroke-linejoin:miter;stroke-miterlimit:4;stroke-dasharray:none;stroke-opacity:1;marker-end:url(#Arrow1Mend-5-2)"
       d="M 609.80585,70.80466 441.0331,168.24561"
       id="path8279-5-1"
       inkscape:connector-curvature="0" />
  </g>
</svg>
