<?xml version="1.0" encoding="UTF-8" standalone="no"?>
<!-- Created with Inkscape (http://www.inkscape.org/) -->

<svg
   xmlns:ns0="http://www.iki.fi/pav/software/textext/"
   xmlns:dc="http://purl.org/dc/elements/1.1/"
   xmlns:cc="http://creativecommons.org/ns#"
   xmlns:rdf="http://www.w3.org/1999/02/22-rdf-syntax-ns#"
   xmlns:svg="http://www.w3.org/2000/svg"
   xmlns="http://www.w3.org/2000/svg"
   xmlns:sodipodi="http://sodipodi.sourceforge.net/DTD/sodipodi-0.dtd"
   xmlns:inkscape="http://www.inkscape.org/namespaces/inkscape"
   width="210mm"
   height="297mm"
   viewBox="0 0 744.09448819 1052.3622047"
   id="svg2"
   version="1.1"
   inkscape:version="0.91 r13725"
   sodipodi:docname="projection2.svg">
  <sodipodi:namedview
     id="base"
     pagecolor="#ffffff"
     bordercolor="#666666"
     borderopacity="1.0"
     inkscape:pageopacity="0.0"
     inkscape:pageshadow="2"
     inkscape:zoom="1.979899"
     inkscape:cx="385.85438"
     inkscape:cy="440.61008"
     inkscape:document-units="px"
     inkscape:current-layer="layer1"
     showgrid="true"
     inkscape:snap-bbox="false"
     inkscape:window-width="1920"
     inkscape:window-height="1056"
     inkscape:window-x="1920"
     inkscape:window-y="24"
     inkscape:window-maximized="1">
    <inkscape:grid
       type="axonomgrid"
       id="grid3336"
       units="mm"
       empspacing="5" />
  </sodipodi:namedview>
  <defs
     id="defs4">
    <marker
       inkscape:stockid="Arrow1Lend"
       orient="auto"
       refY="0.0"
       refX="0.0"
       id="marker4530"
       style="overflow:visible;"
       inkscape:isstock="true">
      <path
         id="path4532"
         d="M 0.0,0.0 L 5.0,-5.0 L -12.5,0.0 L 5.0,5.0 L 0.0,0.0 z "
         style="fill-rule:evenodd;stroke:#000000;stroke-width:1pt;stroke-opacity:1;fill:#000000;fill-opacity:1"
         transform="scale(0.8) rotate(180) translate(12.5,0)" />
    </marker>
    <marker
       inkscape:isstock="true"
       style="overflow:visible;"
       id="marker4484"
       refX="0.0"
       refY="0.0"
       orient="auto"
       inkscape:stockid="Arrow1Lend"
       inkscape:collect="always">
      <path
         transform="scale(0.8) rotate(180) translate(12.5,0)"
         style="fill-rule:evenodd;stroke:#000000;stroke-width:1pt;stroke-opacity:1;fill:#000000;fill-opacity:1"
         d="M 0.0,0.0 L 5.0,-5.0 L -12.5,0.0 L 5.0,5.0 L 0.0,0.0 z "
         id="path4486" />
    </marker>
    <marker
       inkscape:stockid="Arrow1Lend"
       orient="auto"
       refY="0.0"
       refX="0.0"
       id="Arrow1Lend"
       style="overflow:visible;"
       inkscape:isstock="true"
       inkscape:collect="always">
      <path
         id="path4157"
         d="M 0.0,0.0 L 5.0,-5.0 L -12.5,0.0 L 5.0,5.0 L 0.0,0.0 z "
         style="fill-rule:evenodd;stroke:#000000;stroke-width:1pt;stroke-opacity:1;fill:#000000;fill-opacity:1"
         transform="scale(0.8) rotate(180) translate(12.5,0)" />
    </marker>
    <marker
       inkscape:stockid="Arrow1Lstart"
       orient="auto"
       refY="0.0"
       refX="0.0"
       id="Arrow1Lstart"
       style="overflow:visible"
       inkscape:isstock="true">
      <path
         id="path4154"
         d="M 0.0,0.0 L 5.0,-5.0 L -12.5,0.0 L 5.0,5.0 L 0.0,0.0 z "
         style="fill-rule:evenodd;stroke:#000000;stroke-width:1pt;stroke-opacity:1;fill:#000000;fill-opacity:1"
         transform="scale(0.8) translate(12.5,0)" />
    </marker>
  </defs>
  <metadata
     id="metadata7">
    <rdf:RDF>
      <cc:Work
         rdf:about="">
        <dc:format>image/svg+xml</dc:format>
        <dc:type
           rdf:resource="http://purl.org/dc/dcmitype/StillImage" />
        <dc:title></dc:title>
      </cc:Work>
    </rdf:RDF>
  </metadata>
  <g
     inkscape:label="Layer 1"
     inkscape:groupmode="layer"
     id="layer1">
    <path
       style="fill:none;fill-rule:evenodd;stroke:#000000;stroke-width:1px;stroke-linecap:butt;stroke-linejoin:miter;stroke-opacity:1;marker-end:url(#Arrow1Lend)"
       d="m 322.20236,547.44094 76.71485,44.29134"
       id="path4434"
       inkscape:connector-curvature="0" />
    <path
       style="fill:none;fill-rule:evenodd;stroke:#000000;stroke-width:1px;stroke-linecap:butt;stroke-linejoin:miter;stroke-opacity:1;marker-end:url(#marker4484)"
       d="m 322.20236,547.44094 c 15.34297,-8.85826 107.40079,-44.29133 107.40079,-44.29133"
       id="path4476"
       inkscape:connector-curvature="0" />
    <path
       style="fill:none;fill-rule:evenodd;stroke:#000000;stroke-width:1;stroke-linecap:butt;stroke-linejoin:miter;stroke-opacity:1;stroke-miterlimit:4;stroke-dasharray:1,3;stroke-dashoffset:0"
       d="m 322.20236,547.44094 0,-70.86614 92.05782,53.14961 0,106.29921 -92.05782,-53.1496 z"
       id="path4518"
       inkscape:connector-curvature="0" />
    <path
       style="fill:none;fill-rule:evenodd;stroke:#000000;stroke-width:1;stroke-linecap:butt;stroke-linejoin:miter;stroke-opacity:1;stroke-miterlimit:4;stroke-dasharray:3,1;stroke-dashoffset:0"
       d="m 429.60315,503.14961 -61.37188,35.43307"
       id="path4520"
       inkscape:connector-curvature="0" />
    <path
       style="fill:none;fill-rule:evenodd;stroke:#000000;stroke-width:1px;stroke-linecap:butt;stroke-linejoin:miter;stroke-opacity:1;marker-end:url(#marker4530)"
       d="m 322.20236,547.44094 46.02891,-8.85826"
       id="path4522"
       inkscape:connector-curvature="0" />
    <path
       style="fill:#ff0000;fill-rule:evenodd;stroke:#000000;stroke-width:1px;stroke-linecap:butt;stroke-linejoin:miter;stroke-opacity:1;fill-opacity:0"
       id="path3374"
       sodipodi:type="arc"
       sodipodi:cx="322.20236"
       sodipodi:cy="547.44092"
       sodipodi:rx="22.463667"
       sodipodi:ry="22.463667"
       sodipodi:start="6.1012048"
       sodipodi:end="0.51816299"
       sodipodi:open="true"
       d="m 344.29509,543.37549 a 22.463667,22.463667 0 0 1 -2.57786,15.19135" />
    <g
       style="font-style:normal;font-variant:normal;font-weight:normal;font-stretch:normal;letter-spacing:normal;word-spacing:normal;text-anchor:start;fill:none;fill-opacity:1;fill-rule:evenodd;stroke:#000000;stroke-linecap:butt;stroke-linejoin:miter;stroke-miterlimit:10.43299961;stroke-dasharray:none;stroke-dashoffset:0;stroke-opacity:1"
       id="content"
       transform="matrix(2.3356558,0,0,-2.3356558,-140.90083,2257.9634)"
       xml:space="preserve"
       stroke-miterlimit="10.433"
       font-style="normal"
       font-variant="normal"
       font-weight="normal"
       font-stretch="normal"
       font-size-adjust="none"
       letter-spacing="normal"
       word-spacing="normal"
       ns0:text="$z_{t_0}$"
       ns0:preamble=""><path
         style="fill:#000000;stroke-width:0"
         inkscape:connector-curvature="0"
         d="m 224.76,707.95 0.05,0.05 0.05,0.05 0.04,0.05 0.05,0.05 0.04,0.05 0.05,0.04 0.04,0.05 0.04,0.04 0.04,0.04 0.04,0.04 0.04,0.03 0.03,0.04 0.04,0.04 0.04,0.03 0.07,0.07 0.07,0.06 0.06,0.06 0.07,0.06 0.06,0.06 0.13,0.11 0.07,0.06 0.06,0.06 c 0,0 0.62,0.53 0.98,0.89 0.95,0.93 1.17,1.41 1.17,1.45 0,0.1 -0.1,0.1 -0.11,0.1 -0.07,0 -0.1,-0.02 -0.15,-0.11 -0.3,-0.48 -0.51,-0.64 -0.75,-0.64 -0.24,0 -0.36,0.15 -0.51,0.32 -0.19,0.23 -0.36,0.43 -0.69,0.43 -0.74,0 -1.2,-0.93 -1.2,-1.14 0,-0.05 0.03,-0.11 0.12,-0.11 0.09,0 0.11,0.05 0.13,0.11 0.19,0.46 0.76,0.47 0.84,0.47 0.21,0 0.4,-0.07 0.63,-0.15 0.4,-0.15 0.51,-0.15 0.77,-0.15 -0.36,-0.43 -1.2,-1.15 -1.39,-1.3 l -0.89,-0.84 c -0.68,-0.67 -1.03,-1.24 -1.03,-1.31 0,-0.1 0.1,-0.1 0.12,-0.1 0.08,0 0.1,0.02 0.16,0.13 0.23,0.35 0.53,0.62 0.85,0.62 0.23,0 0.33,-0.09 0.57,-0.38 0.17,-0.21 0.35,-0.37 0.64,-0.37 0.99,0 1.57,1.27 1.57,1.54 0,0.05 -0.04,0.1 -0.12,0.1 -0.09,0 -0.11,-0.06 -0.14,-0.13 -0.23,-0.65 -0.87,-0.84 -1.2,-0.84 -0.2,0 -0.38,0.06 -0.59,0.13 -0.34,0.13 -0.48,0.17 -0.69,0.17 -0.02,0 -0.18,0 -0.27,-0.03 z"
         id="path4223" /><path
         style="fill:#000000;stroke-width:0"
         inkscape:connector-curvature="0"
         d="m 229.78,708.39 0.71,0 c 0.14,0 0.23,0 0.23,0.15 0,0.1 -0.09,0.1 -0.21,0.1 l -0.66,0 0.25,1.03 c 0.01,0.03 0.02,0.07 0.02,0.1 0,0.12 -0.09,0.22 -0.23,0.22 -0.18,0 -0.28,-0.12 -0.33,-0.3 -0.05,-0.18 0.04,0.16 -0.27,-1.05 l -0.71,0 c -0.13,0 -0.22,0 -0.22,-0.16 0,-0.09 0.08,-0.09 0.21,-0.09 l 0.66,0 -0.41,-1.65 c -0.04,-0.17 -0.1,-0.43 -0.1,-0.52 0,-0.41 0.35,-0.66 0.74,-0.66 0.78,0 1.22,0.98 1.22,1.07 0,0.09 -0.09,0.09 -0.12,0.09 -0.08,0 -0.09,-0.02 -0.14,-0.13 -0.2,-0.44 -0.55,-0.83 -0.94,-0.83 -0.14,0 -0.24,0.09 -0.24,0.34 0,0.07 0.03,0.21 0.04,0.28 z"
         id="path4225" /><path
         style="fill:#000000;stroke-width:0"
         inkscape:connector-curvature="0"
         d="m 234.07,706.23 0,0.03 0,0.05 0,0.04 0,0.05 -0.01,0.06 0,0.06 0,0.06 -0.01,0.07 -0.01,0.07 -0.01,0.07 -0.01,0.07 -0.02,0.07 -0.02,0.07 -0.02,0.08 -0.02,0.07 -0.03,0.07 -0.04,0.07 -0.03,0.07 -0.04,0.07 -0.05,0.07 -0.05,0.06 -0.05,0.06 -0.03,0.03 -0.03,0.03 -0.04,0.03 -0.03,0.02 -0.03,0.03 -0.04,0.02 -0.04,0.02 -0.04,0.02 -0.04,0.02 -0.04,0.02 -0.05,0.02 -0.04,0.01 -0.05,0.01 -0.05,0.02 -0.05,0.01 -0.05,0 -0.06,0.01 -0.05,0.01 -0.06,0 -0.06,0 0,-0.16 c 0.37,0 0.63,-0.19 0.73,-0.54 0.07,-0.26 0.07,-0.67 0.07,-0.96 0,-0.34 0,-0.75 -0.07,-1.05 -0.13,-0.48 -0.53,-0.55 -0.73,-0.55 l 0,0 c -0.19,0 -0.6,0.06 -0.73,0.57 -0.07,0.26 -0.07,0.62 -0.07,1.03 0,0.37 0,0.71 0.08,0.99 0.12,0.42 0.5,0.51 0.72,0.51 l 0,0.16 c -1.3,0 -1.3,-1.36 -1.3,-1.72 0,-0.37 0,-1.71 1.3,-1.71 1.3,0 1.3,1.34 1.3,1.71 z"
         id="path4227" /></g>    <g
       ns0:preamble=""
       ns0:text="$z_t$"
       word-spacing="normal"
       letter-spacing="normal"
       font-size-adjust="none"
       font-stretch="normal"
       font-weight="normal"
       font-variant="normal"
       font-style="normal"
       stroke-miterlimit="10.433"
       xml:space="preserve"
       transform="matrix(2.3385288,0,0,-2.3385288,-132.0892,2156.4908)"
       id="g4303"
       style="font-style:normal;font-variant:normal;font-weight:normal;font-stretch:normal;letter-spacing:normal;word-spacing:normal;text-anchor:start;fill:none;fill-opacity:1;fill-rule:evenodd;stroke:#000000;stroke-linecap:butt;stroke-linejoin:miter;stroke-miterlimit:10.43299961;stroke-dasharray:none;stroke-dashoffset:0;stroke-opacity:1"><path
         id="path4305"
         d="m 224.76,707.95 0.05,0.05 0.05,0.05 0.04,0.05 0.05,0.05 0.04,0.05 0.05,0.04 0.04,0.05 0.04,0.04 0.04,0.04 0.04,0.04 0.04,0.03 0.03,0.04 0.04,0.04 0.04,0.03 0.07,0.07 0.07,0.06 0.06,0.06 0.07,0.06 0.06,0.06 0.13,0.11 0.07,0.06 0.06,0.06 c 0,0 0.62,0.53 0.98,0.89 0.95,0.93 1.17,1.41 1.17,1.45 0,0.1 -0.1,0.1 -0.11,0.1 -0.07,0 -0.1,-0.02 -0.15,-0.11 -0.3,-0.48 -0.51,-0.64 -0.75,-0.64 -0.24,0 -0.36,0.15 -0.51,0.32 -0.19,0.23 -0.36,0.43 -0.69,0.43 -0.74,0 -1.2,-0.93 -1.2,-1.14 0,-0.05 0.03,-0.11 0.12,-0.11 0.09,0 0.11,0.05 0.13,0.11 0.19,0.46 0.76,0.47 0.84,0.47 0.21,0 0.4,-0.07 0.63,-0.15 0.4,-0.15 0.51,-0.15 0.77,-0.15 -0.36,-0.43 -1.2,-1.15 -1.39,-1.3 l -0.89,-0.84 c -0.68,-0.67 -1.03,-1.24 -1.03,-1.31 0,-0.1 0.1,-0.1 0.12,-0.1 0.08,0 0.1,0.02 0.16,0.13 0.23,0.35 0.53,0.62 0.85,0.62 0.23,0 0.33,-0.09 0.57,-0.38 0.17,-0.21 0.35,-0.37 0.64,-0.37 0.99,0 1.57,1.27 1.57,1.54 0,0.05 -0.04,0.1 -0.12,0.1 -0.09,0 -0.11,-0.06 -0.14,-0.13 -0.23,-0.65 -0.87,-0.84 -1.2,-0.84 -0.2,0 -0.38,0.06 -0.59,0.13 -0.34,0.13 -0.48,0.17 -0.69,0.17 -0.02,0 -0.18,0 -0.27,-0.03 z"
         inkscape:connector-curvature="0"
         style="fill:#000000;stroke-width:0" /><path
         id="path4307"
         d="m 229.78,708.39 0.71,0 c 0.14,0 0.23,0 0.23,0.15 0,0.1 -0.09,0.1 -0.21,0.1 l -0.66,0 0.25,1.03 c 0.01,0.03 0.02,0.07 0.02,0.1 0,0.12 -0.09,0.22 -0.23,0.22 -0.18,0 -0.28,-0.12 -0.33,-0.3 -0.05,-0.18 0.04,0.16 -0.27,-1.05 l -0.71,0 c -0.13,0 -0.22,0 -0.22,-0.16 0,-0.09 0.08,-0.09 0.21,-0.09 l 0.66,0 -0.41,-1.65 c -0.04,-0.17 -0.1,-0.43 -0.1,-0.52 0,-0.41 0.35,-0.66 0.74,-0.66 0.78,0 1.22,0.98 1.22,1.07 0,0.09 -0.09,0.09 -0.12,0.09 -0.08,0 -0.09,-0.02 -0.14,-0.13 -0.2,-0.44 -0.55,-0.83 -0.94,-0.83 -0.14,0 -0.24,0.09 -0.24,0.34 0,0.07 0.03,0.21 0.04,0.28 z"
         inkscape:connector-curvature="0"
         style="fill:#000000;stroke-width:0" /></g>    <g
       style="font-style:normal;font-variant:normal;font-weight:normal;font-stretch:normal;letter-spacing:normal;word-spacing:normal;text-anchor:start;fill:none;fill-opacity:1;fill-rule:evenodd;stroke:#000000;stroke-linecap:butt;stroke-linejoin:miter;stroke-miterlimit:10.43299961;stroke-dasharray:none;stroke-dashoffset:0;stroke-opacity:1"
       id="g4376"
       transform="matrix(2.2260116,0,0,-2.2260116,-128.95513,2123.8715)"
       xml:space="preserve"
       stroke-miterlimit="10.433"
       font-style="normal"
       font-variant="normal"
       font-weight="normal"
       font-stretch="normal"
       font-size-adjust="none"
       letter-spacing="normal"
       word-spacing="normal"
       ns0:text="$z_t\'$"
       ns0:preamble=""><path
         style="fill:#000000;stroke-width:0"
         inkscape:connector-curvature="0"
         d="m 224.76,707.95 0.05,0.05 0.05,0.05 0.04,0.05 0.05,0.05 0.04,0.05 0.05,0.04 0.04,0.05 0.04,0.04 0.04,0.04 0.04,0.04 0.04,0.03 0.03,0.04 0.04,0.04 0.04,0.03 0.07,0.07 0.07,0.06 0.06,0.06 0.07,0.06 0.06,0.06 0.13,0.11 0.07,0.06 0.06,0.06 c 0,0 0.62,0.53 0.98,0.89 0.95,0.93 1.17,1.41 1.17,1.45 0,0.1 -0.1,0.1 -0.11,0.1 -0.07,0 -0.1,-0.02 -0.15,-0.11 -0.3,-0.48 -0.51,-0.64 -0.75,-0.64 -0.24,0 -0.36,0.15 -0.51,0.32 -0.19,0.23 -0.36,0.43 -0.69,0.43 -0.74,0 -1.2,-0.93 -1.2,-1.14 0,-0.05 0.03,-0.11 0.12,-0.11 0.09,0 0.11,0.05 0.13,0.11 0.19,0.46 0.76,0.47 0.84,0.47 0.21,0 0.4,-0.07 0.63,-0.15 0.4,-0.15 0.51,-0.15 0.77,-0.15 -0.36,-0.43 -1.2,-1.15 -1.39,-1.3 l -0.89,-0.84 c -0.68,-0.67 -1.03,-1.24 -1.03,-1.31 0,-0.1 0.1,-0.1 0.12,-0.1 0.08,0 0.1,0.02 0.16,0.13 0.23,0.35 0.53,0.62 0.85,0.62 0.23,0 0.33,-0.09 0.57,-0.38 0.17,-0.21 0.35,-0.37 0.64,-0.37 0.99,0 1.57,1.27 1.57,1.54 0,0.05 -0.04,0.1 -0.12,0.1 -0.09,0 -0.11,-0.06 -0.14,-0.13 -0.23,-0.65 -0.87,-0.84 -1.2,-0.84 -0.2,0 -0.38,0.06 -0.59,0.13 -0.34,0.13 -0.48,0.17 -0.69,0.17 -0.02,0 -0.18,0 -0.27,-0.03 z"
         id="path4378" /><path
         style="fill:#000000;stroke-width:0"
         inkscape:connector-curvature="0"
         d="m 230.52,714.03 0.01,0.01 0,0.01 0.01,0.01 0,0.01 0.01,0.01 0,0.01 0.01,0.01 0,0.01 0,0.01 0,0 0.01,0.01 0,0.01 0,0.01 0,0 0.01,0.01 0,0.01 0,0 0,0.01 0,0.01 0,0 0,0.01 0,0 0.01,0.01 0,0 0,0.01 0,0.01 0,0.01 0,0.01 c 0,0.22 -0.2,0.39 -0.41,0.39 -0.27,0 -0.35,-0.22 -0.39,-0.33 l -0.92,-3.02 c 0,-0.01 -0.03,-0.11 -0.03,-0.11 0,-0.09 0.21,-0.16 0.27,-0.16 0.05,0 0.05,0.02 0.1,0.12 z"
         id="path4380" /><path
         style="fill:#000000;stroke-width:0"
         inkscape:connector-curvature="0"
         d="m 229.78,707.42 0.71,0 c 0.14,0 0.23,0 0.23,0.15 0,0.1 -0.09,0.1 -0.21,0.1 l -0.66,0 0.25,1.03 c 0.01,0.03 0.02,0.07 0.02,0.1 0,0.12 -0.09,0.22 -0.23,0.22 -0.18,0 -0.28,-0.12 -0.33,-0.3 -0.05,-0.17 0.04,0.16 -0.27,-1.05 l -0.71,0 c -0.13,0 -0.22,0 -0.22,-0.15 0,-0.1 0.08,-0.1 0.21,-0.1 l 0.66,0 -0.41,-1.65 c -0.04,-0.17 -0.1,-0.42 -0.1,-0.51 0,-0.42 0.35,-0.67 0.74,-0.67 0.78,0 1.22,0.98 1.22,1.07 0,0.09 -0.09,0.09 -0.12,0.09 -0.08,0 -0.09,-0.01 -0.14,-0.13 -0.2,-0.44 -0.55,-0.83 -0.94,-0.83 -0.14,0 -0.24,0.09 -0.24,0.34 0,0.07 0.03,0.22 0.04,0.29 z"
         id="path4382" /></g>    <g
       ns0:preamble=""
       ns0:text="$\\phi_t$"
       word-spacing="normal"
       letter-spacing="normal"
       font-size-adjust="none"
       font-stretch="normal"
       font-weight="normal"
       font-variant="normal"
       font-style="normal"
       stroke-miterlimit="10.433"
       xml:space="preserve"
       transform="matrix(1.7046257,0,0,-1.7046257,-35.261833,1763.5419)"
       id="g4448"
       style="font-style:normal;font-variant:normal;font-weight:normal;font-stretch:normal;letter-spacing:normal;word-spacing:normal;text-anchor:start;fill:none;fill-opacity:1;fill-rule:evenodd;stroke:#000000;stroke-linecap:butt;stroke-linejoin:miter;stroke-miterlimit:10.43299961;stroke-dasharray:none;stroke-dashoffset:0;stroke-opacity:1"><path
         id="path4450"
         d="m 227.79,713.8 0,0 0,0 0,0 0,0 0,0 0,0 0,0.01 0,0 0,0 0,0.01 0,0 0,0.01 0,0 0,0.01 0,0 0.01,0.01 0,0 0,0.01 0,0.01 0,0.01 0.01,0.01 0,0 0,0.01 0,0 0,0.01 0,0 0,0.01 0,0 0,0.01 0,0 0,0 0,0 0.01,0 0,0 0,0 0,0 0,0.01 0,0 0,0 c 0,0.01 0,0.1 -0.12,0.1 -0.1,0 -0.11,-0.03 -0.15,-0.2 l -0.58,-2.3 c -1.59,-0.05 -3.05,-1.38 -3.05,-2.73 0,-0.95 0.7,-1.74 1.91,-1.81 l 0.05,0.22 c -0.59,0.03 -1.31,0.38 -1.31,1.38 0,1.19 0.86,2.59 2.34,2.72 l -1.03,-4.1 -0.05,-0.22 c -0.08,-0.31 -0.15,-0.62 -0.23,-0.93 -0.11,-0.47 -0.22,-0.85 -0.22,-0.88 0,-0.1 0.08,-0.11 0.13,-0.11 0.04,0 0.06,0.01 0.09,0.04 0.02,0.02 0.08,0.26 0.11,0.4 l 0.38,1.48 0.05,0.22 1.03,4.1 c 0.76,-0.04 1.32,-0.5 1.32,-1.38 0,-1.17 -0.85,-2.6 -2.35,-2.72 L 226.09,707 c 1.61,0.05 3.05,1.4 3.05,2.73 0,0.79 -0.53,1.71 -1.91,1.81 z"
         inkscape:connector-curvature="0"
         style="fill:#000000;stroke-width:0" /><path
         id="path4452"
         d="m 231.08,708.39 0.71,0 c 0.13,0 0.22,0 0.22,0.15 0,0.1 -0.09,0.1 -0.2,0.1 l -0.67,0 0.26,1.03 c 0.01,0.03 0.02,0.07 0.02,0.1 0,0.12 -0.1,0.22 -0.24,0.22 -0.17,0 -0.27,-0.12 -0.32,-0.3 -0.05,-0.18 0.04,0.16 -0.27,-1.05 l -0.71,0 c -0.13,0 -0.22,0 -0.22,-0.16 0,-0.09 0.08,-0.09 0.21,-0.09 l 0.66,0 -0.41,-1.65 c -0.04,-0.17 -0.11,-0.43 -0.11,-0.52 0,-0.41 0.35,-0.66 0.75,-0.66 0.77,0 1.21,0.98 1.21,1.07 0,0.09 -0.09,0.09 -0.11,0.09 -0.08,0 -0.09,-0.02 -0.15,-0.13 -0.19,-0.44 -0.55,-0.83 -0.93,-0.83 -0.15,0 -0.24,0.09 -0.24,0.34 0,0.07 0.03,0.21 0.04,0.28 z"
         inkscape:connector-curvature="0"
         style="fill:#000000;stroke-width:0" /></g>    <path
       style="fill:none;fill-rule:evenodd;stroke:#000000;stroke-width:2;stroke-linecap:butt;stroke-linejoin:miter;stroke-opacity:1;stroke-miterlimit:4;stroke-dasharray:none"
       d="m 260.89235,495.06839 168.7108,-98.218 0,248.0315 -168.77266,97.44094 0,-247.52641"
       id="path4188"
       inkscape:connector-curvature="0"
       sodipodi:nodetypes="ccccc" />
    <path
       style="fill:none;fill-rule:evenodd;stroke:#000000;stroke-width:2;stroke-linecap:butt;stroke-linejoin:miter;stroke-opacity:1;stroke-miterlimit:4;stroke-dasharray:none"
       d="M 306.8594,768.89764 230.14455,476.5748 383.57424,370.27559 444.94612,653.74016 Z"
       id="path4201"
       inkscape:connector-curvature="0" />
  </g>
</svg>
